<?xml version="1.0" standalone="no"?>
<!DOCTYPE svg PUBLIC "-//W3C//DTD SVG 1.1//EN" "http://www.w3.org/Graphics/SVG/1.1/DTD/svg11.dtd" >
<svg xmlns="http://www.w3.org/2000/svg" xmlns:xlink="http://www.w3.org/1999/xlink" version="1.1">
<metadata>
Created by FontForge 20170731 at Wed Aug 23 14:33:24 2017
 By ,,,
Telerik, A Progress Company
</metadata>
<defs>
<font id="WebComponentsIcons" horiz-adv-x="1024" >
  <font-face 
    font-family="WebComponentsIcons"
    font-weight="400"
    font-stretch="normal"
    units-per-em="1024"
    panose-1="0 0 0 0 0 0 0 0 0 0"
    ascent="960"
    descent="-64"
    bbox="0 -64 1024 960"
    underline-thickness="0"
    underline-position="0"
    unicode-range="U+0001-FFFD"
  />
<missing-glyph 
 />
    <glyph glyph-name="uniE000" unicode="arrow&#x2d;&#x34;&#x35;&#x2d;up&#x2d;right" 
d="M704 640v-384l-384 384h384z" />
    <glyph glyph-name="uniE001" unicode="arrow&#x2d;&#x34;&#x35;&#x2d;down&#x2d;right" 
d="M704 256h-384l384 384v-384z" />
    <glyph glyph-name="uniE002" unicode="arrow&#x2d;&#x34;&#x35;&#x2d;down&#x2d;left" 
d="M320 256v384l384 -384h-384z" />
    <glyph glyph-name="uniE003" unicode="arrow&#x2d;&#x34;&#x35;&#x2d;up&#x2d;left" 
d="M320 640h384l-384 -384v384z" />
    <glyph glyph-name="uniE004" unicode="arrow&#x2d;&#x36;&#x30;&#x2d;up" 
d="M512 640l256 -384h-512z" />
    <glyph glyph-name="uniE005" unicode="arrow&#x2d;&#x36;&#x30;&#x2d;right" 
d="M704 448l-384 -256v512z" />
    <glyph glyph-name="uniE006" unicode="arrow&#x2d;&#x36;&#x30;&#x2d;down" 
d="M512 256l-256 384h512z" />
    <glyph glyph-name="uniE007" unicode="arrow&#x2d;&#x36;&#x30;&#x2d;left" 
d="M320 448l384 256v-512z" />
    <glyph glyph-name="uniE008" unicode="arrow&#x2d;end&#x2d;up" 
d="M256 256l256 384l256 -384h-512zM768 704h-512v-64h512v64z" />
    <glyph glyph-name="uniE009" unicode="arrow&#x2d;end&#x2d;right" 
d="M256 704l384 -256l-384 -256v512zM704 192v512h-64v-512h64z" />
    <glyph glyph-name="uniE00A" unicode="arrow&#x2d;end&#x2d;down" 
d="M768 704l-256 -384l-256 384h512zM256 256h512v64h-512v-64z" />
    <glyph glyph-name="uniE00B" unicode="arrow&#x2d;end&#x2d;left" 
d="M704 192l-384 256l384 256v-512zM256 704v-512h64v512h-64z" />
    <glyph glyph-name="uniE00C" unicode="arrow&#x2d;double&#x2d;&#x36;&#x30;&#x2d;up" 
d="M256 64l256 384l256 -384h-512zM512 832l-256 -384h512z" />
    <glyph glyph-name="uniE00D" unicode="arrow&#x2d;double&#x2d;&#x36;&#x30;&#x2d;right" 
d="M128 704l384 -256l-384 -256v512zM896 448l-384 256v-512z" />
    <glyph glyph-name="uniE00E" unicode="arrow&#x2d;double&#x2d;&#x36;&#x30;&#x2d;down" 
d="M768 832l-256 -384l-256 384h512zM512 64l256 384h-512z" />
    <glyph glyph-name="uniE00F" unicode="arrow&#x2d;double&#x2d;&#x36;&#x30;&#x2d;left" 
d="M896 192l-384 256l384 256v-512zM128 448l384 -256v512z" />
    <glyph glyph-name="uniE010" unicode="arrows&#x2d;kpi" 
d="M256 384h512l-256 -384zM512 896l-256 -384h512l-256 384v0z" />
    <glyph glyph-name="uniE011" unicode="arrows&#x2d;no&#x2d;change" 
d="M512 640l-256 -384l-256 384h512zM704 640l-256 -384h512z" />
    <glyph glyph-name="uniE012" unicode="arrow&#x2d;overflow&#x2d;down" 
d="M768 640l-256 -384l-256 384h512zM256 768v-64h512v64h-512z" />
    <glyph glyph-name="uniE013" unicode="arrow&#x2d;chevron&#x2d;up" 
d="M260 252l252 252l252 -252l68 68l-320 320l-320 -320l68 -68v0z" />
    <glyph glyph-name="uniE014" unicode="arrow&#x2d;chevron&#x2d;right" 
d="M316 700l252 -252l-252 -252l68 -68l320 320l-320 320l-68 -68v0z" />
    <glyph glyph-name="uniE015" unicode="arrow&#x2d;chevron&#x2d;down" 
d="M764 644l-252 -252l-252 252l-68 -68l320 -320l320 320l-68 68v0z" />
    <glyph glyph-name="uniE016" unicode="arrow&#x2d;chevron&#x2d;left" 
d="M708 196l-252 252l252 252l-68 68l-320 -320l320 -320l68 68v0z" />
    <glyph glyph-name="uniE017" unicode="arrow&#x2d;up" 
d="M768 384h-192v-256h-128v256h-192l256 384z" />
    <glyph glyph-name="uniE018" unicode="arrow&#x2d;right" 
d="M448 192v192h-256v128h256v192l384 -256z" />
    <glyph glyph-name="uniE019" unicode="arrow&#x2d;down" 
d="M256 512h192v256h128v-256h192l-256 -384l-256 384v0z" />
    <glyph glyph-name="uniE01A" unicode="arrow&#x2d;left" 
d="M576 704v-192h256v-128h-256v-192l-384 256z" />
    <glyph glyph-name="uniE01B" unicode="arrow&#x2d;drill" 
d="M576 576v-128h128l-160 -256l-160 256h128v128h-256v64h576v-64h-256z" />
    <glyph glyph-name="uniE01C" unicode="arrow&#x2d;parent" 
d="M256 384l160 256l160 -256h-128v-128h384v-64h-448v192h-128z" />
    <glyph glyph-name="uniE01D" unicode="arrow&#x2d;root" 
d="M256 384l160 256l160 -256h-128v-128h384v-64h-448v192h-128zM832 704h-640v-64h640v64z" />
    <glyph glyph-name="uniE01E" unicode="arrows&#x2d;resizing" 
d="M256 449h128v-65h-128v-128l-256 160l256 160v-127zM448 0h128v896h-128v-896zM1024 416l-256 160v-128h-128v-65h128v-127z" />
    <glyph glyph-name="uniE01F" unicode="arrows&#x2d;dimensions" 
d="M704 0v128h-448v-128h-64v128h-128v64h128v448h-128l160 256l160 -256h-128v-448h448v128l256 -160z" />
    <glyph glyph-name="uniE020" unicode="arrows&#x2d;swap" 
d="M512 640h-128v-448h-64v448h-128l160 256zM704 256v448h-64v-448h-128l160 -256l160 256h-128z" />
    <glyph glyph-name="uniE021" unicode="drag&#x2d;and&#x2d;drop" 
d="M64 704l384 -224l-384 -224v448zM512 512v-64h448v64h-448z" />
    <glyph glyph-name="uniE022" unicode="categorize" 
d="M64 896v-384l320 192zM64 0v384l320 -192zM960 832v-64h-576v64h576zM960 640v-64h-576v64h576zM960 320v-64h-576v64h576zM960 128v-64h-576v64h576z" />
    <glyph glyph-name="uniE023" unicode="grid" 
d="M64 896h256v-256h-256v256zM384 0h256v256h-256v-256zM64 0h256v256h-256v-256zM64 320h256v256h-256v-256zM384 320h256v256h-256v-256zM704 896v-256h256v256h-256zM704 320h256v256h-256v-256zM384 640h256v256h-256v-256zM704 0h256v256h-256v-256z" />
    <glyph glyph-name="uniE024" unicode="grid&#x2d;layout" 
d="M64 896h192v-192h-192v192zM320 896v-192h640v192h-640zM64 384h192v192h-192v-192zM320 384h640v192h-640v-192zM64 64h192v192h-192v-192zM320 64h640v192h-640v-192z" />
    <glyph glyph-name="uniE025" unicode="group" 
d="M64 448h384v-384h-384v384zM64 512h384v384h-384v-384zM512 64h384v384h-384v-384zM512 896v-384h384v384h-384z" />
    <glyph glyph-name="uniE026" unicode="ungroup" 
d="M64 448h384v-384h-384v384zM128 576h256v256h-256v-256zM576 128h256v256h-256v-256zM512 896v-384h384v384h-384z" />
    <glyph glyph-name="uniE027" unicode="handler&#x2d;drag" 
d="M320 832h128v-768h-128v768zM512 832v-768h128v768h-128z" />
    <glyph glyph-name="uniE028" unicode="layout" 
d="M384 128h512v-128h-512v128zM384 192h512v128h-512v-128zM64 0h256v704h-256v-704zM384 576h512v128h-512v-128zM384 384h512v128h-512v-128zM64 960v-192h832v192h-832z" />
    <glyph glyph-name="uniE029" unicode="layout&#x2d;&#x31;&#x2d;by&#x2d;&#x34;" 
d="M64 960h384v-960h-384v960zM512 960v-192h384v192h-384zM512 512h384v192h-384v-192zM512 256h384v192h-384v-192zM512 0h384v192h-384v-192z" />
    <glyph glyph-name="uniE02A" unicode="layout&#x2d;&#x32;&#x2d;by&#x2d;&#x32;" 
d="M64 512h384v448h-384v-448zM512 512h384v448h-384v-448zM64 0h384v448h-384v-448zM512 0h384v448h-384v-448z" />
    <glyph glyph-name="uniE02B" unicode="layout&#x2d;side&#x2d;by&#x2d;side" 
d="M64 192h832v-192h-832v192zM64 256h832v192h-832v-192zM64 512h832v192h-832v-192zM64 960v-192h832v192h-832z" />
    <glyph glyph-name="uniE02C" unicode="layout&#x2d;stacked" 
d="M64 448h384v-192h-384v192zM64 0h384v192h-384v-192zM512 256h384v192h-384v-192zM64 960v-448h832v448h-832zM512 0h384v192h-384v-192z" />
    <glyph glyph-name="uniE02D" unicode="columns" 
d="M128 896h192v-896h-192v896zM384 0h192v896h-192v-896zM640 896v-896h192v896h-192z" />
    <glyph glyph-name="uniE02E" unicode="rows" 
d="M960 832v-192h-896v192h896zM64 576v-192h896v192h-896zM960 320h-896v-192h896v192z" />
    <glyph glyph-name="uniE02F" unicode="reorder" 
d="M960 704v-128h-896v128h896zM64 512v-128h896v128h-896zM960 320h-896v-128h896v128z" />
    <glyph glyph-name="uniE030" unicode="menu" 
d="M960 896v-192h-896v192h896zM64 576v-192h896v192h-896zM960 256h-896v-192h896v192z" />
    <glyph glyph-name="uniE031" unicode="more&#x2d;vertical" 
d="M480 704q40 0 68 28t28 68t-28 68t-68 28t-68 -28t-28 -68t28 -68t68 -28zM480 576q-40 0 -68 -28t-28 -68t28 -68t68 -28t68 28t28 68t-28 68t-68 28zM480 256q-40 0 -68 -28t-28 -68t28 -68t68 -28t68 28t28 68t-28 68t-68 28z" />
    <glyph glyph-name="uniE032" unicode="more&#x2d;horizontal" 
d="M256 480q0 40 -28 68t-68 28t-68 -28t-28 -68t28 -68t68 -28t68 28t28 68zM384 480q0 -40 28 -68t68 -28t68 28t28 68t-28 68t-68 28t-68 -28t-28 -68zM704 480q0 -40 28 -68t68 -28t68 28t28 68t-28 68t-68 28t-68 -28t-28 -68z" />
    <glyph glyph-name="uniE100" unicode="undo" 
d="M960 128q-43 42 -94 77.5t-108 61t-119 39.5t-127 14v-256l-448 384l448 384v-256q92 0 172.5 -36t141 -97t96.5 -142.5t38 -172.5z" />
    <glyph glyph-name="uniE101" unicode="redo" 
d="M512 576v256l448 -384l-448 -384v256q-66 0 -127.5 -14t-118.5 -39.5t-108 -61t-94 -77.5q2 91 38 172.5t96.5 142.5t141 97t172.5 36v0z" />
    <glyph glyph-name="uniE102" unicode="reset" 
d="M124 608l111 -64q-21 -35 -32 -75.5t-11 -84.5q0 -66 25 -124.5t68.5 -102t102 -68.5t124.5 -25t124.5 25t102 68.5t68.5 102t25 124.5t-25 124.5t-68.5 102t-102 68.5t-124.5 25v-128l-320 192l320 192v-128q93 0 174.5 -35t142.5 -96t96 -142.5t35 -174.5t-35 -174.5
t-96 -142.5t-142.5 -96t-174.5 -35t-174.5 35t-142.5 96t-96 142.5t-35 174.5q0 61 15.5 118t44.5 106z" />
    <glyph glyph-name="uniE103" unicode="recurrence" 
d="M960 384q0 -93 -35 -174.5t-96 -142.5t-142.5 -96t-174.5 -35t-174.5 35t-142.5 96t-96 142.5t-35 174.5t35 174.5t96 142.5t142.5 96t174.5 35v128l320 -192l-320 -192v128q-66 0 -124.5 -25t-102 -68.5t-68.5 -102t-25 -124.5t25 -124.5t68.5 -102t102 -68.5t124.5 -25
t124.5 25t102 68.5t68.5 102t25 124.5q0 44 -11 84.5t-32 75.5l111 64q29 -49 44.5 -106t15.5 -118z" />
    <glyph glyph-name="uniE104" unicode="non&#x2d;recurrence" 
d="M642 92l95 -95q-49 -29 -106 -45t-119 -16q-93 0 -174.5 35t-142.5 96t-96 142.5t-35 174.5q0 61 16 118.5t45 106.5l95 -95q-14 -30 -21 -62.5t-7 -67.5q0 -66 25 -124t68.5 -101.5t102 -69t124.5 -25.5q35 0 67.5 7t62.5 21zM879 127q19 27 34 57.5t26 62.5
q10 33 15.5 67t5.5 70q0 61 -15.5 118t-44.5 106l-111 -64q20 -35 31.5 -75.5t11.5 -84.5q0 -7 -0.5 -14t-0.5 -14q-3 -38 -14.5 -72t-30.5 -65l-439 439q31 18 65 30t72 15q7 0 14 0.5t14 0.5v-128l320 192l-320 192v-128q-36 0 -70 -5.5t-67 -15.5q-32 -11 -62.5 -26
t-57.5 -34l-210 209l-45 -45l979 -979l45 45l-145 146v0z" />
    <glyph glyph-name="uniE105" unicode="reset&#x2d;sm" 
d="M203 483l93 -25q-4 -14 -6 -28.5t-2 -29.5q0 -46 17.5 -87t48 -71.5t71.5 -48t87 -17.5t87 17.5t71.5 48t48 71.5t17.5 87t-17.5 87t-48 71.5t-71.5 48t-87 17.5v-112l-256 160l256 160v-112q66 0 124.5 -25t102 -68.5t68.5 -102t25 -124.5t-25 -124.5t-68.5 -102
t-102 -68.5t-124.5 -25t-124.5 25t-102 68.5t-68.5 102t-25 124.5q0 21 3 42t8 41z" />
    <glyph glyph-name="uniE106" unicode="recurrence&#x2d;sm" 
d="M832 400q0 -66 -25 -124.5t-68.5 -102t-102 -68.5t-124.5 -25t-124.5 25t-102 68.5t-68.5 102t-25 124.5t25 124.5t68.5 102t102 68.5t124.5 25v112l256 -160l-256 -160v112q-46 0 -87 -17.5t-71.5 -48t-48 -71.5t-17.5 -87t17.5 -87t48 -71.5t71.5 -48t87 -17.5t87 17.5
t71.5 48t48 71.5t17.5 87q0 15 -2 29.5t-6 28.5l93 25q5 -20 8 -41t3 -42v0z" />
    <glyph glyph-name="uniE107" unicode="clock" 
d="M512 704h-64v-320h320v64h-256v256zM512 896q-93 0 -174.5 -35t-142.5 -96t-96 -142.5t-35 -174.5t35 -174.5t96 -142.5t142.5 -96t174.5 -35t174.5 35t142.5 96t96 142.5t35 174.5t-35 174.5t-96 142.5t-142.5 96t-174.5 35zM512 64q-79 0 -149 30t-122.5 82.5
t-82.5 122.5t-30 149t30 149t82.5 122.5t122.5 82.5t149 30t149 -30t122.5 -82.5t82.5 -122.5t30 -149t-30 -149t-82.5 -122.5t-122.5 -82.5t-149 -30z" />
    <glyph glyph-name="uniE108" unicode="calendar" 
d="M832 128h-256v256h256v-256zM960 832v-768q0 -27 -18.5 -45.5t-45.5 -18.5h-768q-26 0 -45 18.5t-19 45.5v768q0 26 19 45t45 19h128v64h128v-64h256v64h128v-64h128q27 0 45.5 -19t18.5 -45zM896 576h-768v-512v0v0h768v512zM896 832v0v0h-128v-64h-128v64h-256v-64
h-128v64h-128v0v0v-192h768v192z" />
    <glyph glyph-name="uniE109" unicode="floppy" 
d="M768 896h-640q-26 0 -45 -19t-19 -45v-768q0 -26 19 -45t45 -19h768q26 0 45 19t19 45v640zM640 832v-256h-128v256h128zM896 64h-768v0v0v768v0v0h64v-320h512v320h38l154 -155v-613z" />
    <glyph glyph-name="uniE10A" unicode="printer" 
d="M896 640h-64v128l-128 128h-448q-27 0 -45.5 -18.5t-18.5 -45.5v-192h-64q-26 0 -45 -19t-19 -45v-320q0 -26 19 -45t45 -19h64v-128q0 -26 19 -45t45 -19h512q26 0 45 19t19 45v128h64q26 0 45 19t19 45v320q0 26 -19 45t-45 19zM256 832h384v-128h128v-128h-512v256z
M896 320h-128v-256v0v0h-512v0v0v256h-128v64h768v-64zM320 320h384v-64h-384v64zM320 192h320v-64h-320v64z" />
    <glyph glyph-name="uniE10B" unicode="edit" 
d="M670 787l90 90q19 19 45.5 19t45.5 -19l91 -90q18 -19 18 -45.5t-18 -45.5l-91 -90zM625 742l-561 -561v-181h181l561 561zM200 136l-45 45l470 470l45 -45l-470 -470v0z" />
    <glyph glyph-name="uniE10C" unicode="delete" 
d="M832 768h-192v64q0 26 -19 45t-45 19h-192q-26 0 -45 -19t-19 -45v-64h-192v-128h64v-576q0 -26 19 -45t45 -19h448q26 0 45 19t19 45v576h64v128zM384 832h192v0v0v-64h-192v32v32zM704 64h-448v0v0v576h64v-512h64v512h64v-512h64v512h64v-512h64v512h64v-576z" />
    <glyph glyph-name="uniE10D" unicode="attachment" 
d="M768 704v-512h-64v512q0 79 -56.5 135.5t-135.5 56.5t-135.5 -56.5t-56.5 -135.5v-576q0 -53 37.5 -90.5t90.5 -37.5t90.5 37.5t37.5 90.5v576q0 26 -19 45t-45 19t-45 -19t-19 -45v-512h-64v512q0 53 37.5 90.5t90.5 37.5t90.5 -37.5t37.5 -90.5v-576
q0 -79 -56.5 -135.5t-135.5 -56.5t-135.5 56.5t-56.5 135.5v576q0 53 20 99.5t55 81.5t81.5 55t99.5 20t99.5 -20t81.5 -55t55 -81.5t20 -99.5z" />
    <glyph glyph-name="uniE10E" unicode="attachment&#x2d;&#x34;&#x35;" 
d="M139 822q37 37 84 55.5t96 18.5t96 -18.5t84 -55.5l360 -361l-45 -45l-360 360q-56 56 -135.5 56t-134.5 -56q-56 -56 -56 -135t56 -135l405 -405q37 -37 90 -37t90 37t37 90t-37 90l-405 405q-19 19 -45.5 19t-44.5 -19q-19 -18 -19 -44.5t19 -45.5l360 -360l-45 -45
l-360 360q-38 37 -38 90t38 90q37 38 89.5 38t90.5 -38l405 -405q56 -56 56 -135t-56 -135t-135 -56t-135 56l-405 405q-38 37 -56.5 84t-18.5 96t18.5 96t56.5 85v0v0z" />
    <glyph glyph-name="uniE10F" unicode="hyperlink" 
d="M768 192q-71 0 -129.5 35.5t-92.5 92.5h222q53 0 90.5 37.5t37.5 90.5t-37.5 90.5t-90.5 37.5h-222q34 57 92.5 92.5t129.5 35.5q53 0 99.5 -20t81.5 -55t55 -81.5t20 -99.5t-20 -99.5t-55 -81.5t-81.5 -55t-99.5 -20v0v0zM192 448q0 27 18.5 45.5t45.5 18.5h512
q27 0 45.5 -18.5t18.5 -45.5t-18.5 -45.5t-45.5 -18.5h-512q-27 0 -45.5 18.5t-18.5 45.5v0zM128 448q0 -53 37.5 -90.5t90.5 -37.5h222q-34 -57 -92.5 -92.5t-129.5 -35.5q-53 0 -99.5 20t-81.5 55t-55 81.5t-20 99.5t20 99.5t55 81.5t81.5 55t99.5 20q71 0 129.5 -35.5
t92.5 -92.5h-222q-53 0 -90.5 -37.5t-37.5 -90.5v0z" />
    <glyph glyph-name="uniE110" unicode="hyperlink&#x2d;remove" 
d="M768 192q-71 0 -129.5 35.5t-92.5 92.5h222q53 0 90.5 37.5t37.5 90.5t-37.5 90.5t-90.5 37.5h-222q34 57 92.5 92.5t129.5 35.5q53 0 99.5 -20t81.5 -55t55 -81.5t20 -99.5t-20 -99.5t-55 -81.5t-81.5 -55t-99.5 -20v0v0zM128 448q0 -53 37.5 -90.5t90.5 -37.5h222
q-34 -57 -92.5 -92.5t-129.5 -35.5q-53 0 -99.5 20t-81.5 55t-55 81.5t-20 99.5t20 99.5t55 81.5t81.5 55t99.5 20q71 0 129.5 -35.5t92.5 -92.5h-222q-53 0 -90.5 -37.5t-37.5 -90.5v0zM544 765v195h-64v-195l16 2t16 1t16 -1zM424 741l-138 138l-45 -45l138 -138
q8 14 19.5 25.5t25.5 19.5zM645 696l138 138l-45 45l-138 -138q14 -8 25.5 -19.5t19.5 -25.5zM512 128q-8 0 -16 1l-16 2v-195h64v195l-16 -2t-16 -1zM379 200l-138 -138l45 -45l138 138q-14 8 -25.5 19.5t-19.5 25.5zM600 155l138 -138l45 45l-138 138q-8 -14 -19.5 -25.5
t-25.5 -19.5z" />
    <glyph glyph-name="uniE111" unicode="link&#x2d;vertical" 
d="M256 192q0 71 35.5 129.5t92.5 92.5v-222q0 -53 37.5 -90.5t90.5 -37.5t90.5 37.5t37.5 90.5v222q57 -34 92.5 -92.5t35.5 -129.5q0 -53 -20 -99.5t-55 -81.5t-81.5 -55t-99.5 -20t-99.5 20t-81.5 55t-55 81.5t-20 99.5v0v0zM512 768q27 0 45.5 -18.5t18.5 -45.5v-512
q0 -27 -18.5 -45.5t-45.5 -18.5t-45.5 18.5t-18.5 45.5v512q0 27 18.5 45.5t45.5 18.5v0zM512 832q-53 0 -90.5 -37.5t-37.5 -90.5v-222q-57 34 -92.5 92.5t-35.5 129.5q0 53 20 99.5t55 81.5t81.5 55t99.5 20t99.5 -20t81.5 -55t55 -81.5t20 -99.5q0 -71 -35.5 -129.5
t-92.5 -92.5v222q0 53 -37.5 90.5t-90.5 37.5v0z" />
    <glyph glyph-name="uniE112" unicode="unlink&#x2d;vertical" 
d="M829 416h195v64h-195l2 -16t1 -16t-1 -16zM806 536l138 138l-46 45l-138 -138q14 -8 25.5 -19.5t20.5 -25.5zM760 315l138 -138l45 45l-138 138q-8 -14 -19.5 -25.5t-25.5 -19.5zM192 448q0 8 1 16l2 16h-195v-64h195l-2 16t-1 16zM264 582l-138 138l-45 -46l138 -138
q8 14 19.5 25.5t25.5 20.5zM219 360l-138 -138l45 -45l138 138q-14 8 -25.5 19.5t-19.5 25.5v0zM256 192q0 71 35.5 129.5t92.5 92.5v-222q0 -53 37.5 -90.5t90.5 -37.5t90.5 37.5t37.5 90.5v222q57 -34 92.5 -92.5t35.5 -129.5q0 -53 -20 -99.5t-55 -81.5t-81.5 -55
t-99.5 -20t-99.5 20t-81.5 55t-55 81.5t-20 99.5v0v0zM512 832q-53 0 -90.5 -37.5t-37.5 -90.5v-222q-57 34 -92.5 92.5t-35.5 129.5q0 53 20 99.5t55 81.5t81.5 55t99.5 20t99.5 -20t81.5 -55t55 -81.5t20 -99.5q0 -71 -35.5 -129.5t-92.5 -92.5v222q0 53 -37.5 90.5
t-90.5 37.5v0z" />
    <glyph glyph-name="uniE113" unicode="lock" 
d="M768 512h-64v192q0 79 -56 135.5t-136 56.5q-79 0 -135.5 -56t-56.5 -136v-192h-64q-26 0 -45 -19t-19 -45v-384q0 -26 19 -45t45 -19h512q26 0 45 19t19 45v384q0 26 -19 45t-45 19zM384 704q0 53 37.5 90.5t90.5 37.5t90.5 -37.5t37.5 -90.5v-192h-256v192zM512 192
q-27 0 -45.5 18.5t-18.5 45.5t18.5 45.5t45.5 18.5t45.5 -18.5t18.5 -45.5t-18.5 -45.5t-45.5 -18.5z" />
    <glyph glyph-name="uniE114" unicode="unlock" 
d="M832 512h-384v192q0 79 -56 135.5t-136 56.5q-79 0 -135.5 -56t-56.5 -136v-256h64v256q0 53 37.5 90.5t90.5 37.5t90.5 -37.5t37.5 -90.5v-192h-64q-26 0 -45 -19t-19 -45v-384q0 -26 19 -45t45 -19h512q26 0 45 19t19 45v384q0 26 -19 45t-45 19zM576 192
q-27 0 -45.5 18.5t-18.5 45.5t18.5 45.5t45.5 18.5t45.5 -18.5t18.5 -45.5t-18.5 -45.5t-45.5 -18.5z" />
    <glyph glyph-name="uniE115" unicode="cancel" 
d="M512 896q-75 0 -143.5 -23.5t-124.5 -65.5q-26 -19 -48.5 -42t-42.5 -49q-42 -56 -65.5 -124.5t-23.5 -143.5q0 -93 35 -174.5t96 -142.5t142.5 -96t174.5 -35q75 0 143.5 23.5t124.5 65.5q26 19 48.5 42t42.5 49q42 56 65.5 124.5t23.5 143.5q0 93 -35 174.5t-96 142.5
t-142.5 96t-174.5 35v0zM512 128q-66 0 -124.5 25t-102 68.5t-68.5 102t-25 124.5q0 49 14 93.5t39 82.5l443 -443q-38 -25 -82.5 -39t-93.5 -14zM779 272l-443 443q38 25 82.5 39t93.5 14q66 0 124.5 -25t102 -68.5t68.5 -102t25 -124.5q0 -49 -14 -93.5t-39 -82.5z" />
    <glyph glyph-name="uniE116" unicode="cancel&#x2d;outline" 
d="M512 896q-42 0 -82 -7.5t-77 -21.5t-71 -34.5t-63 -45.5q-13 -11 -24 -22.5t-22 -23.5q-25 -29 -45.5 -63t-34.5 -71t-21.5 -77t-7.5 -82q0 -93 35 -174.5t96 -142.5t142.5 -96t174.5 -35q42 0 82 7.5t77 21.5t71 34.5t63 45.5q13 11 24 22.5t22 23.5q25 29 45.5 63
t34.5 71t21.5 77t7.5 82q0 93 -35 174.5t-96 142.5t-142.5 96t-174.5 35v0zM512 64q-79 0 -149 30t-122.5 82.5t-82.5 122t-30 149.5q0 71 24 134.5t67 113.5l541 -541q-50 -43 -113.5 -67t-134.5 -24zM805 200l-541 541q50 43 113.5 67t134.5 24q79 0 149 -30t122.5 -82.5
t82.5 -122t30 -149.5q0 -71 -24 -134.5t-67 -113.5z" />
    <glyph glyph-name="uniE117" unicode="cancel&#x2d;circle" 
d="M339 531l256 -256q-19 -9 -40 -14t-43 -5q-79 0 -135.5 56.5t-56.5 135.5q0 22 5 43t14 40v0zM512 640q-22 0 -43 -5t-40 -14l256 -256q9 19 14 40t5 43q0 79 -56.5 135.5t-135.5 56.5zM960 448q0 -93 -35 -174.5t-96 -142.5t-142.5 -96t-174.5 -35t-174.5 35t-142.5 96
t-96 142.5t-35 174.5t35 174.5t96 142.5t142.5 96t174.5 35t174.5 -35t142.5 -96t96 -142.5t35 -174.5zM832 448q0 66 -25 124.5t-68.5 102t-102 68.5t-124.5 25q-49 0 -93.5 -14t-82.5 -39q-27 -18 -50 -41t-41 -50q-25 -38 -39 -82.5t-14 -93.5q0 -66 25 -124.5t68.5 -102
t102 -68.5t124.5 -25q49 0 93.5 14t82.5 39q27 18 50 41t41 50q25 38 39 82.5t14 93.5v0z" />
    <glyph glyph-name="uniE118" unicode="checkmark" 
d="M869 795l91 -91l-576 -576l-320 320l91 91l229 -230z" />
    <glyph glyph-name="uniE119" unicode="checkmark&#x2d;outline" 
d="M512 896q-93 0 -174.5 -35t-142.5 -96t-96 -142.5t-35 -174.5t35 -174.5t96 -142.5t142.5 -96t174.5 -35t174.5 35t142.5 96t96 142.5t35 174.5t-35 174.5t-96 142.5t-142.5 96t-174.5 35zM512 64q-79 0 -149 30t-122.5 82.5t-82.5 122t-30 149.5q0 79 30 149t82.5 122.5
t122 82.5t149.5 30q79 0 149 -30t122.5 -82.5t82.5 -122t30 -149.5q0 -79 -30 -149t-82.5 -122.5t-122 -82.5t-149.5 -30zM448 372l-166 166l-90 -90l256 -256l352 352l-90 90z" />
    <glyph glyph-name="uniE11A" unicode="checkmark&#x2d;circle" 
d="M512 896q-93 0 -174.5 -35t-142.5 -96t-96 -142.5t-35 -174.5t35 -174.5t96 -142.5t142.5 -96t174.5 -35t174.5 35t142.5 96t96 142.5t35 174.5t-35 174.5t-96 142.5t-142.5 96t-174.5 35zM448 192l-256 256l90 90l166 -166l294 294l90 -90z" />
    <glyph glyph-name="uniE11B" unicode="close" 
d="M832 677l-229 -229l229 -229l-91 -91l-229 229l-229 -229l-91 91l229 229l-229 229l91 91l229 -229l229 229z" />
    <glyph glyph-name="uniE11C" unicode="close&#x2d;outline" 
d="M768 283l-91 -91l-165 165l-165 -165l-91 91l165 165l-165 165l91 91l165 -165l165 165l91 -91l-165 -165zM512 896q-93 0 -174.5 -35t-142.5 -96t-96 -142.5t-35 -174.5t35 -174.5t96 -142.5t142.5 -96t174.5 -35t174.5 35t142.5 96t96 142.5t35 174.5t-35 174.5
t-96 142.5t-142.5 96t-174.5 35zM512 64q-79 0 -149 30t-122.5 82.5t-82.5 122t-30 149.5q0 79 30 149t82.5 122.5t122 82.5t149.5 30q79 0 149 -30t122.5 -82.5t82.5 -122t30 -149.5q0 -79 -30 -149t-82.5 -122.5t-122 -82.5t-149.5 -30z" />
    <glyph glyph-name="uniE11D" unicode="close&#x2d;circle" 
d="M512 896q-93 0 -174.5 -35t-142.5 -96t-96 -142.5t-35 -174.5t35 -174.5t96 -142.5t142.5 -96t174.5 -35t174.5 35t142.5 96t96 142.5t35 174.5t-35 174.5t-96 142.5t-142.5 96t-174.5 35zM768 283l-91 -91l-165 165l-165 -165l-91 91l165 165l-165 165l91 91l165 -165
l165 165l91 -91l-165 -165z" />
    <glyph glyph-name="uniE11E" unicode="plus" 
d="M576 512v256h-128v-256h-256v-128h256v-256h128v256h256v128h-256z" />
    <glyph glyph-name="uniE11F" unicode="plus&#x2d;outline" 
d="M576 384v-192h-128v192h-192v128h192v192h128v-192h192v-128h-192zM512 896q-93 0 -174.5 -35t-142.5 -96t-96 -142.5t-35 -174.5t35 -174.5t96 -142.5t142.5 -96t174.5 -35t174.5 35t142.5 96t96 142.5t35 174.5t-35 174.5t-96 142.5t-142.5 96t-174.5 35zM512 64
q-79 0 -149 30t-122.5 82.5t-82.5 122t-30 149.5q0 79 30 149t82.5 122.5t122 82.5t149.5 30q79 0 149 -30t122.5 -82.5t82.5 -122t30 -149.5q0 -79 -30 -149t-82.5 -122.5t-122 -82.5t-149.5 -30z" />
    <glyph glyph-name="uniE120" unicode="plus&#x2d;circle" 
d="M512 896q-93 0 -174.5 -35t-142.5 -96t-96 -142.5t-35 -174.5t35 -174.5t96 -142.5t142.5 -96t174.5 -35t174.5 35t142.5 96t96 142.5t35 174.5t-35 174.5t-96 142.5t-142.5 96t-174.5 35zM576 384v-192h-128v192h-192v128h192v192h128v-192h192v-128h-192z" />
    <glyph glyph-name="uniE121" unicode="kpi&#x2d;trend&#x2d;equal" 
d="M192 512v-128h640v128h-640z" />
    <glyph glyph-name="uniE122" unicode="minus&#x2d;outline" 
d="M256 512h512v-128h-512v128zM512 896q-93 0 -174.5 -35t-142.5 -96t-96 -142.5t-35 -174.5t35 -174.5t96 -142.5t142.5 -96t174.5 -35t174.5 35t142.5 96t96 142.5t35 174.5t-35 174.5t-96 142.5t-142.5 96t-174.5 35zM512 64q-79 0 -149 30t-122.5 82.5t-82.5 122
t-30 149.5q0 79 30 149t82.5 122.5t122 82.5t149.5 30q79 0 149 -30t122.5 -82.5t82.5 -122t30 -149.5q0 -79 -30 -149t-82.5 -122.5t-122 -82.5t-149.5 -30z" />
    <glyph glyph-name="uniE123" unicode="minus&#x2d;circle" 
d="M512 896q-93 0 -174.5 -35t-142.5 -96t-96 -142.5t-35 -174.5t35 -174.5t96 -142.5t142.5 -96t174.5 -35t174.5 35t142.5 96t96 142.5t35 174.5t-35 174.5t-96 142.5t-142.5 96t-174.5 35zM256 384v128h512v-128h-512z" />
    <glyph glyph-name="uniE124" unicode="sort&#x2d;asc" 
d="M192 256h640v-128h-640v128zM192 512h448v-128h-448v128zM192 768h256v-128h-256v128z" />
    <glyph glyph-name="uniE125" unicode="sort&#x2d;desc" 
d="M192 768h640v-128h-640v128zM192 512h448v-128h-448v128zM192 256h256v-128h-256v128z" />
    <glyph glyph-name="uniE126" unicode="sort&#x2d;clear" 
d="M222 512l128 -128h-158v128h30zM192 128h256v128h-256v-128zM621 384h19v128h-147l-128 128h467v128h-595l-128 128l-45 -45l851 -851l45 45z" />
    <glyph glyph-name="uniE127" unicode="sort&#x2d;asc&#x2d;sm" 
d="M512 576v-448h-64v448h-192l224 256l224 -256h-192z" />
    <glyph glyph-name="uniE128" unicode="sort&#x2d;desc&#x2d;sm" 
d="M704 384l-224 -256l-224 256h192v448h64v-448h192z" />
    <glyph glyph-name="uniE129" unicode="filter" 
d="M128 832v-64l320 -320v-448l128 128v320l320 320v64h-768z" />
    <glyph glyph-name="uniE12A" unicode="filter&#x2d;clear" 
d="M287 832l336 -336l-47 -48v-320l-128 -128v448l-320 320v64h159zM759 631l137 137v64h-337l-128 128l-47 -44l596 -596l44 47z" />
    <glyph glyph-name="uniE12B" unicode="filter&#x2d;sm" 
d="M256 704h512v-64l-192 -192v-192l-128 -128v320l-192 192v64z" />
    <glyph glyph-name="uniE12C" unicode="filter&#x2d;sort&#x2d;asc&#x2d;sm" 
d="M896 704v-64l-192 -192v-128l-64 -128v256l-192 192v64h448zM128 512h128v-320h64v320h128l-160 192z" />
    <glyph glyph-name="uniE12D" unicode="filter&#x2d;sort&#x2d;desc&#x2d;sm" 
d="M896 704v-64l-192 -192v-128l-64 -128v256l-192 192v64h448zM288 192l160 192h-128v320h-64v-320h-128z" />
    <glyph glyph-name="uniE12E" unicode="filter&#x2d;add&#x2d;expression" 
d="M960 832v-64h-896v64h896zM576 640h384v64h-384v-64zM576 384h384v128h-384v-128zM576 192h384v64h-384v-64zM576 64h384v64h-384v-64zM192 256h128v128h128v128h-128v128h-128v-128h-128v-128h128v-128z" />
    <glyph glyph-name="uniE12F" unicode="filter&#x2d;add&#x2d;group" 
d="M704 256v-64h-64v-128h64v-64h-128v256h128zM832 256v-64h64v-128h-64v-64h128v256h-128zM320 640h-128v-128h-128v-128h128v-128h128v128h128v128h-128v128zM576 640h384v64h-384v-64zM64 832v-64h896v64h-896zM576 384h384v128h-384v-128z" />
    <glyph glyph-name="uniE130" unicode="login" 
d="M768 0v0h192v896h-192v-896zM64 512v-128h256v-192l320 256l-320 256v-192h-256z" />
    <glyph glyph-name="uniE131" unicode="logout" 
d="M256 896v0h-192v-896h192v896zM384 512v-128h256v-192l320 256l-320 256v-192h-256z" />
    <glyph glyph-name="uniE132" unicode="download" 
d="M64 192v0v-192h896v192h-896zM576 896h-128v-256h-192l256 -320l256 320h-192v256z" />
    <glyph glyph-name="uniE133" unicode="upload" 
d="M64 192v0v-192h896v192h-896zM448 320h128v256h192l-256 320l-256 -320h192v-256z" />
    <glyph glyph-name="uniE134" unicode="hyperlink&#x2d;open" 
d="M64 0h896v448h-64v-384h-768v768h384v64h-448v-896zM640 896l115 -115l-307 -306l91 -91l306 307l115 -115v320h-320v0z" />
    <glyph glyph-name="uniE135" unicode="hyperlink&#x2d;open&#x2d;sm" 
d="M192 128h640v192h-64v-128h-512v512h128v64h-192v-640zM512 768h320v-320l-115 115l-242 -243l-91 91l243 242l-1 1l-114 114v0z" />
    <glyph glyph-name="uniE136" unicode="launch" 
d="M192 768v-640h192v64h-128v512h512v-128h64v192h-640zM832 448v-320h-320l115 115l-243 242l91 91l242 -243l1 1l114 114v0z" />
    <glyph glyph-name="uniE137" unicode="window&#x2d;maximize" 
d="M192 768v-640h640v640h-640zM768 192h-512v384h512v-384z" />
    <glyph glyph-name="uniE138" unicode="tiles" 
d="M896 896v-576h-64v384h-512v192h576zM128 576h576v-576h-576v576zM192 64h448v320h-448v-320z" />
    <glyph glyph-name="uniE139" unicode="window&#x2d;minimize" 
d="M832 384v-128h-640v128h640z" />
    <glyph glyph-name="uniE13A" unicode="custom" 
d="M925 324l-83 63q3 15 4.5 30t1.5 31t-1.5 31t-4.5 30l83 63q10 7 12.5 19t-3.5 22l-68 118q-6 10 -17.5 14t-22.5 -1l-96 -40q-23 20 -50 35t-56 26l-12 103q-2 12 -11 20t-21 8h-136q-12 0 -21 -8t-11 -20l-13 -103q-29 -11 -55.5 -26t-49.5 -35l-96 40q-11 5 -22.5 1
t-17.5 -14l-68 -118q-6 -10 -3.5 -22t11.5 -19l83 -63q-2 -15 -3.5 -30t-1.5 -31t1.5 -31t4.5 -30l-83 -63q-10 -7 -12.5 -19t3.5 -22l68 -118q6 -10 17.5 -14t22.5 1l96 40q23 -20 50 -35t56 -26l13 -103q1 -12 10 -20t22 -8h135q12 0 21 8t11 20l13 103q29 11 55.5 26
t50.5 35l96 -40q11 -5 22.5 -1t17.5 14l68 118q5 10 2.5 22t-12.5 19v0zM512 280q-70 0 -119 49t-49 119t49 119t119 49t119 -49t49 -119t-49 -119t-119 -49z" />
    <glyph glyph-name="uniE13B" unicode="cogs" 
d="M664 232l-59 44q2 11 3 22t1 22t-1 22t-3 22l59 44q7 6 8.5 14t-2.5 16l-49 84q-4 7 -12 10t-16 0l-69 -29q-16 14 -35.5 25t-39.5 18l-10 74q-1 9 -7.5 14.5t-14.5 5.5h-97q-9 0 -15.5 -5.5t-7.5 -14.5l-9 -74q-21 -7 -40 -18t-35 -25l-69 29q-8 3 -16 0.5t-12 -10.5
l-49 -84q-4 -7 -2.5 -15.5t8.5 -14.5l59 -44q-2 -11 -3 -22t-1 -22t1 -22t3 -22l-59 -44q-7 -6 -8.5 -14t2.5 -16l48 -84q5 -7 13 -10t16 0l69 29q16 -14 35 -25t40 -18l9 -74q1 -9 7.5 -14.5t15.5 -5.5h97q8 0 14.5 5.5t7.5 14.5l9 74q21 7 40 18t36 25l68 -29
q8 -3 16.5 -0.5t12.5 10.5l48 84q5 7 3.5 15.5t-8.5 14.5v0zM368 200q-49 0 -84.5 35t-35.5 85t35.5 85t84.5 35q50 0 85 -35t35 -85t-35 -85t-85 -35zM955 651l-36 27q1 6 1.5 12.5t0.5 13.5t-0.5 13.5t-1.5 12.5l35 27q4 3 5.5 8t-1.5 10l-29 50q-3 4 -7.5 6t-9.5 0
l-41 -18q-10 9 -21.5 15.5t-24.5 10.5l-5 45q-1 5 -5 8.5t-9 3.5h-58q-5 0 -9 -3.5t-4 -8.5l-6 -44q-12 -5 -23.5 -11.5t-21.5 -15.5l-41 18q-5 2 -10 0.5t-8 -6.5l-29 -50q-2 -5 -1 -10t5 -8l36 -27q-2 -6 -2.5 -12.5t-0.5 -13.5t0.5 -13t2.5 -13l-36 -27q-4 -3 -5 -8
t1 -10l29 -50q3 -5 8 -6.5t10 0.5l41 18q10 -9 21.5 -15.5t23.5 -11.5l6 -44q0 -5 4 -8.5t9 -3.5h58q5 0 9 3.5t5 8.5l5 44q13 5 24.5 11.5t21.5 15.5l41 -18q5 -2 9.5 -0.5t7.5 6.5l29 50q3 5 2 10t-5 8v0zM777 632q-30 0 -51 21t-21 51t21 51t51 21t51 -21t21 -51t-21 -51
t-51 -21z" />
    <glyph glyph-name="uniE13C" unicode="settings" 
d="M941 155l-329 329q13 28 20.5 59.5t7.5 64.5q0 60 -22.5 112.5t-61.5 91.5t-91.5 61.5t-112.5 22.5q-33 0 -64.5 -7t-59.5 -21l153 -153q18 -18 18 -45t-18 -45l-46 -46q-18 -18 -44.5 -18t-45.5 18l-153 153q-13 -28 -20.5 -59.5t-7.5 -64.5q0 -60 22.5 -112.5
t61.5 -91.5t91.5 -61.5t112.5 -22.5q33 0 64.5 7.5t59.5 20.5l330 -329q18 -19 44.5 -19t45.5 19l45 45q19 19 19 45.5t-19 45.5zM896 109l-45 -45l-319 319q12 10 23.5 21.5t21.5 23.5z" />
    <glyph glyph-name="uniE13D" unicode="eye" 
d="M512 704q-71 0 -137.5 -18.5t-124.5 -52t-105.5 -81t-80.5 -104.5q33 -57 80.5 -104.5t105.5 -81t124.5 -52t137.5 -18.5t137.5 18.5t124.5 52t105.5 81t80.5 104.5q-33 57 -80.5 104.5t-105.5 81t-124.5 52t-137.5 18.5zM448 576q27 0 45.5 -18.5t18.5 -45.5
t-18.5 -45.5t-45.5 -18.5t-45.5 18.5t-18.5 45.5t18.5 45.5t45.5 18.5zM140 448q27 40 65 73t80 57q18 11 37.5 20t39.5 16q-34 -31 -54 -74t-20 -92t20 -92t54 -74q-20 7 -39.5 16t-37.5 20q-42 24 -80 57t-65 73v0zM739 318q-18 -11 -37.5 -20t-39.5 -16q34 31 54 74
t20 92t-20 92t-54 74q20 -7 39.5 -16t37.5 -20q42 -24 80 -57t65 -73q-27 -40 -65 -73t-80 -57z" />
    <glyph glyph-name="uniE13E" unicode="search" 
d="M731 320h-46l-53 53q34 42 53 93.5t19 109.5q0 66 -25 124.5t-68.5 102t-102 68.5t-124.5 25t-124.5 -25t-102 -68.5t-68.5 -102t-25 -124.5t25 -124.5t68.5 -102t102 -68.5t124.5 -25q58 0 109.5 19t93.5 53l53 -53v-46l229 -229l91 91l-229 229v0zM128 576
q0 53 20 99.5t55 81.5t81.5 55t99.5 20t99.5 -20t81.5 -55t55 -81.5t20 -99.5t-20 -99.5t-55 -81.5t-81.5 -55t-99.5 -20t-99.5 20t-81.5 55t-55 81.5t-20 99.5z" />
    <glyph glyph-name="uniE13F" unicode="zoom&#x2d;in" 
d="M576 512h-128v-128h-128v128h-128v128h128v128h128v-128h128v-128zM960 91l-91 -91l-229 229v46l-53 53q-42 -34 -93.5 -53t-109.5 -19q-66 0 -124.5 25t-102 68.5t-68.5 102t-25 124.5t25 124.5t68.5 102t102 68.5t124.5 25t124.5 -25t102 -68.5t68.5 -102t25 -124.5
q0 -58 -19 -109.5t-53 -93.5l53 -53h46l229 -229v0zM384 320q53 0 99.5 20t81.5 55t55 81.5t20 99.5t-20 99.5t-55 81.5t-81.5 55t-99.5 20t-99.5 -20t-81.5 -55t-55 -81.5t-20 -99.5t20 -99.5t55 -81.5t81.5 -55t99.5 -20z" />
    <glyph glyph-name="uniE140" unicode="zoom&#x2d;out" 
d="M576 512h-384v128h384v-128zM960 91l-91 -91l-229 229v46l-53 53q-42 -34 -93.5 -53t-109.5 -19q-66 0 -124.5 25t-102 68.5t-68.5 102t-25 124.5t25 124.5t68.5 102t102 68.5t124.5 25t124.5 -25t102 -68.5t68.5 -102t25 -124.5q0 -58 -19 -109.5t-53 -93.5l53 -53h46
l229 -229v0zM384 320q53 0 99.5 20t81.5 55t55 81.5t20 99.5t-20 99.5t-55 81.5t-81.5 55t-99.5 20t-99.5 -20t-81.5 -55t-55 -81.5t-20 -99.5t20 -99.5t55 -81.5t81.5 -55t99.5 -20z" />
    <glyph glyph-name="uniE141" unicode="move" 
d="M768 320v64h-192v-192h64l-128 -192l-128 192h64v192h-192v-64l-192 128l192 128v-64h192v192h-64l128 192l128 -192h-64v-192h192v64l192 -128z" />
    <glyph glyph-name="uniE142" unicode="calculator" 
d="M128 832v-768h768v768h-768zM320 128h-128v128h128v-128zM320 320h-128v128h128v-128zM512 128h-128v128h128v-128zM512 320h-128v128h128v-128zM832 128h-192v320h192v-320zM832 576h-640v192h640v-192z" />
    <glyph glyph-name="uniE143" unicode="cart" 
d="M384 224q0 -40 -28 -68t-68 -28t-68 28t-28 68t28 68t68 28t68 -28t28 -68zM672 320q-40 0 -68 -28t-28 -68t28 -68t68 -28t68 28t28 68t-28 68t-68 28zM256 768v64h-192v-64h128v-384h576v64h-512v320zM320 512h512v64h-512v-64zM320 704v-64h576v64h-576z" />
    <glyph glyph-name="uniE144" unicode="connector" 
d="M832 736q0 -40 -28 -68t-68 -28q-31 0 -56 18t-35 46h-133v-576h-197q-10 -28 -35 -46t-56 -18q-40 0 -68 28t-28 68t28 68t68 28q31 0 56 -18t35 -46h133v576h197q10 28 35 46t56 18q40 0 68 -28t28 -68z" />
    <glyph glyph-name="uniE145" unicode="plus&#x2d;sm" 
d="M704 512v-128h-128v-128h-128v128h-128v128h128v128h128v-128h128z" />
    <glyph glyph-name="uniE146" unicode="minus&#x2d;sm" 
d="M704 512v-128h-384v128h384z" />
    <glyph glyph-name="uniE147" unicode="kpi&#x2d;status&#x2d;deny" 
d="M960 448l-448 -448l-448 448l448 448z" />
    <glyph glyph-name="uniE148" unicode="kpi&#x2d;status&#x2d;hold" 
d="M512 832l-448 -768h896z" />
    <glyph glyph-name="uniE149" unicode="kpi&#x2d;status&#x2d;open" 
d="M960 448q0 -93 -35 -174.5t-96 -142.5t-142.5 -96t-174.5 -35t-174.5 35t-142.5 96t-96 142.5t-35 174.5t35 174.5t96 142.5t142.5 96t174.5 35t174.5 -35t142.5 -96t96 -142.5t35 -174.5z" />
    <glyph glyph-name="uniE200" unicode="play" 
d="M0 -64v1024l1024 -512z" />
    <glyph glyph-name="uniE201" unicode="pause" 
d="M640 960h320v-1024h-320v1024zM64 -64h320v1024h-320v-1024z" />
    <glyph glyph-name="uniE202" unicode="stop" 
d="M1024 -64h-1024v1024h1024v-1024z" />
    <glyph glyph-name="uniE203" unicode="rewind" 
d="M512 448l512 320v-640zM512 128v640l-512 -320z" />
    <glyph glyph-name="uniE204" unicode="forward" 
d="M0 128v640l512 -320zM1024 448l-512 320v-640z" />
    <glyph glyph-name="uniE205" unicode="volume&#x2d;down" 
d="M0 256h192l256 -256v896l-256 -256h-192v-384zM576 200v496q41 -11 76.5 -34t61 -56t40 -73t14.5 -85t-14.5 -85t-40 -73t-61 -56t-76.5 -34z" />
    <glyph glyph-name="uniE206" unicode="volume&#x2d;up" 
d="M0 256h192l256 -256v896l-256 -256h-192v-384zM576 200v496q41 -11 76.5 -34t61 -56t40 -73t14.5 -85t-14.5 -85t-40 -73t-61 -56t-76.5 -34zM576 960v-90q68 0 130.5 -30t111.5 -86q27 -31 47.5 -66t34.5 -74t21 -80.5t7 -85.5t-7 -85.5t-21 -80.5t-34.5 -74t-47.5 -66
q-49 -56 -111.5 -86t-130.5 -30v-90q93 0 174.5 40t142.5 109.5t96 163t35 199.5t-35 199.5t-96 163t-142.5 109.5t-174.5 40z" />
    <glyph glyph-name="uniE207" unicode="volume&#x2d;off" 
d="M192 640l256 256v-896l-256 256h-192v384h192zM1024 581l-91 91l-133 -133l-134 133l-90 -91l133 -133l-133 -133l91 -91l133 133l133 -133l91 91l-134 133z" />
    <glyph glyph-name="uniE208" unicode="hd" 
d="M960 832h-896q-26 0 -45 -19t-19 -45v-640q0 -26 19 -45t45 -19h896q26 0 45 19t19 45v640q0 26 -19 45t-45 19zM512 192h-128v192h-128v-192h-128v512h128v-192h128v192h128v-512zM933 330q-8 -24 -18 -44t-22 -34q-12 -15 -27 -26.5t-33 -18.5q-17 -8 -39 -11.5
t-48 -3.5h-170v512h165q31 0 53.5 -3.5t38.5 -10.5q16 -6 31 -17.5t28 -27.5t23.5 -36.5t18.5 -44.5q7 -25 10.5 -55t3.5 -66q0 -32 -4 -60.5t-11 -52.5v0zM824 518q4 -13 6 -30.5t2 -40.5q0 -22 -2 -39.5t-6 -30.5t-8 -22t-10 -14q-5 -5 -11 -9t-14 -7q-6 -1 -19 -3t-38 -2
h-52v256h26q32 0 47.5 -1t21.5 -2q10 -2 18.5 -6.5t16.5 -10.5q7 -7 12.5 -16.5t9.5 -21.5v0z" />
    <glyph glyph-name="uniE209" unicode="subtitles" 
d="M960 832h-896l-32 -8t-32 -56v-640q0 -48 32 -56l32 -8h896q48 0 56 32l8 32v640l-8 32t-56 32zM480 551q-9 6 -20 11t-24 8q-13 4 -25.5 5.5t-25.5 1.5q-27 0 -48.5 -8.5t-37.5 -26.5q-15 -17 -23 -40.5t-8 -53.5t8 -53.5t23 -40.5q16 -17 37 -25.5t47 -8.5
q24 0 48.5 6.5t48.5 20.5v-133q-27 -11 -58.5 -16.5t-67.5 -5.5q-35 0 -65.5 7.5t-55.5 22.5q-26 15 -45.5 36.5t-32.5 49.5q-14 28 -20.5 60t-6.5 69q0 39 7.5 74t22.5 65q15 31 36.5 54.5t48.5 40.5q27 16 59 24.5t67 8.5q29 0 56.5 -4t54.5 -12v-137v0zM896 551
q-9 6 -20 11t-24 8q-13 4 -25.5 5.5t-25.5 1.5q-27 0 -48.5 -8.5t-37.5 -26.5q-15 -17 -23 -40.5t-8 -53.5t8 -53.5t23 -40.5q16 -17 37 -25.5t47 -8.5q24 0 48.5 6.5t48.5 20.5v-133q-27 -11 -58.5 -16.5t-67.5 -5.5q-35 0 -65.5 7.5t-55.5 22.5q-26 15 -45.5 36.5
t-32.5 49.5q-14 28 -20.5 60t-6.5 69q0 39 7.5 74t22.5 65q15 31 36.5 54.5t48.5 40.5q27 16 59 24.5t67 8.5q29 0 56.5 -4t54.5 -12v-137v0z" />
    <glyph glyph-name="uniE20A" unicode="playlist" 
d="M0 448h640v-128h-640v128zM1024 832h-1024v128h1024v-128zM768 702v-536q-20 12 -44.5 19t-51.5 7q-66 0 -113 -37.5t-47 -90.5t47 -90.5t113 -37.5t113 37.5t47 90.5v510h192v130zM0 704v-128h640v128h-640z" />
    <glyph glyph-name="uniE20B" unicode="audio" 
d="M320 748v-518q-20 12 -44.5 19t-51.5 7q-66 0 -113 -37.5t-47 -90.5t47 -90.5t113 -37.5t113 37.5t47 90.5v507l512 118v-331q-20 12 -44.5 19t-51.5 7q-66 0 -113 -37.5t-47 -90.5t47 -90.5t113 -37.5t113 37.5t47 90.5v576z" />
    <glyph glyph-name="uniE20C" unicode="play&#x2d;sm" 
d="M192 128v640l640 -320z" />
    <glyph glyph-name="uniE20D" unicode="pause&#x2d;sm" 
d="M576 768h192v-640h-192v640zM192 128h192v640h-192v-640z" />
    <glyph glyph-name="uniE20E" unicode="stop&#x2d;sm" 
d="M832 128h-640v640h640v-640z" />
    <glyph glyph-name="uniE300" unicode="favorite&#x2d;outline" 
d="M894 766q-32 33 -73.5 49.5t-84.5 16.5t-84.5 -16.5t-73.5 -49.5l-66 -65l-66 65q-32 33 -73.5 49.5t-84.5 16.5t-84.5 -16.5t-73.5 -49.5q-33 -32 -49.5 -74t-16.5 -85.5t16.5 -85.5t49.5 -75l382 -382l382 382q33 33 49.5 75t16.5 85.5t-16.5 85.5t-49.5 74v0zM849 492
l-337 -337l-337 337q-23 22 -35 52t-12 62q0 33 12 63t35 52q22 23 51.5 35t61.5 12t61.5 -12t51.5 -35l111 -111l111 111q22 23 51.5 35t61.5 12t61.5 -12t51.5 -35q23 -22 35 -52t12 -63q0 -32 -12 -62t-35 -52z" />
    <glyph glyph-name="uniE301" unicode="favorite" 
d="M894 766q-32 33 -73.5 49.5t-84.5 16.5t-84.5 -16.5t-73.5 -49.5l-66 -65l-66 65q-32 33 -73.5 49.5t-84.5 16.5t-84.5 -16.5t-73.5 -49.5q-33 -32 -49.5 -74t-16.5 -85.5t16.5 -85.5t49.5 -75l382 -382l382 382q33 33 49.5 75t16.5 85.5t-16.5 85.5t-49.5 74v0z" />
    <glyph glyph-name="uniE302" unicode="bookmark&#x2d;outline" 
d="M960 555l-322 29l-126 312l-126 -312l-322 -29l244 -223l-74 -332l278 177l278 -177l-74 332l244 223v0zM512 253l-182 -116l48 217l-164 150l216 20l82 201l82 -201l216 -20l-164 -150l48 -217l-182 116v0z" />
    <glyph glyph-name="uniE303" unicode="bookmark" 
d="M512 177l-278 -177l74 332l-244 223l322 29l126 312l126 -312l322 -29l-244 -223l74 -332z" />
    <glyph glyph-name="uniE304" unicode="checkbox" 
d="M128 832v-768h768v768h-768zM832 128h-640v640h640v-640z" />
    <glyph glyph-name="uniE305" unicode="checkbox&#x2d;checked" 
d="M128 832v-768h768v768h-768zM832 128h-640v640h640v-640zM677 667l91 -91l-320 -320l-192 192l91 91l101 -102z" />
    <glyph glyph-name="uniE306" unicode="tri&#x2d;state&#x2d;indeterminate" 
d="M256 704h512v-512h-512v512zM128 832v-768h768v768h-768zM832 128h-640v640h640v-640z" />
    <glyph glyph-name="uniE307" unicode="tri&#x2d;state&#x2d;null" 
d="M384 832h256v-64h-256v64zM832 832h-128v-64h128v-128h64v192h-64zM832 320h64v256h-64v-256zM832 128h-128v-64h192v192h-64v-128zM384 64h256v64h-256v-64zM192 256h-64v-192h192v64h-128v128zM192 576h-64v-256h64v256zM128 832v-192h64v128h128v64h-192z" />
    <glyph glyph-name="uniE308" unicode="circle" 
d="M768 448q0 -53 -20 -99.5t-55 -81.5t-81.5 -55t-99.5 -20t-99.5 20t-81.5 55t-55 81.5t-20 99.5t20 99.5t55 81.5t81.5 55t99.5 20t99.5 -20t81.5 -55t55 -81.5t20 -99.5z" />
    <glyph glyph-name="uniE309" unicode="radiobutton" 
d="M512 832q-79 0 -149 -30t-122.5 -82.5t-82.5 -122t-30 -149.5q0 -79 30 -149t82.5 -122.5t122 -82.5t149.5 -30q79 0 149 30t122.5 82.5t82.5 122t30 149.5q0 79 -30 149t-82.5 122.5t-122 82.5t-149.5 30zM512 128q-66 0 -124.5 25t-102 68.5t-68.5 102t-25 124.5
t25 124.5t68.5 102t102 68.5t124.5 25t124.5 -25t102 -68.5t68.5 -102t25 -124.5t-25 -124.5t-68.5 -102t-102 -68.5t-124.5 -25z" />
    <glyph glyph-name="uniE30A" unicode="radiobutton&#x2d;checked" 
d="M703 449q0 -79 -56.5 -135.5t-136.5 -56.5t-136 56t-56 136t56 136.5t136 56.5t136.5 -56.5t56.5 -136.5v0zM512 832q-79 0 -149 -30t-122.5 -82.5t-82.5 -122t-30 -149.5q0 -79 30 -149t82.5 -122.5t122 -82.5t149.5 -30q79 0 149 30t122.5 82.5t82.5 122t30 149.5
q0 79 -30 149t-82.5 122.5t-122 82.5t-149.5 30zM512 128q-66 0 -124.5 25t-102 68.5t-68.5 102t-25 124.5t25 124.5t68.5 102t102 68.5t124.5 25t124.5 -25t102 -68.5t68.5 -102t25 -124.5t-25 -124.5t-68.5 -102t-102 -68.5t-124.5 -25z" />
    <glyph glyph-name="uniE400" unicode="bell" 
d="M384 128h256q0 -53 -37.5 -90.5t-90.5 -37.5t-90.5 37.5t-37.5 90.5zM704 640q0 63 -36.5 112.5t-92.5 68.5q1 3 1 5.5v5.5q0 27 -18.5 45.5t-45.5 18.5t-45.5 -18.5t-18.5 -45.5v-5.5t1 -5.5q-56 -19 -92.5 -68.5t-36.5 -112.5q0 -66 -15 -124.5t-41 -102t-61 -68.5
t-75 -25v-128h768v128q-40 0 -75 25t-61 68.5t-41 102t-15 124.5z" />
    <glyph glyph-name="uniE401" unicode="information" 
d="M576 256h64v-64h-256v64h64v192h-64v64h192v-256zM576 704h-128v-128h128v128zM960 448q0 -93 -35 -174.5t-96 -142.5t-142.5 -96t-174.5 -35t-174.5 35t-142.5 96t-96 142.5t-35 174.5t35 174.5t96 142.5t142.5 96t174.5 35t174.5 -35t142.5 -96t96 -142.5t35 -174.5z
M896 448q0 79 -30 149t-82.5 122.5t-122 82.5t-149.5 30q-79 0 -149 -30t-122.5 -82.5t-82.5 -122t-30 -149.5q0 -79 30 -149t82.5 -122.5t122 -82.5t149.5 -30q79 0 149 30t122.5 82.5t82.5 122t30 149.5z" />
    <glyph glyph-name="uniE402" unicode="help" 
d="M704 576q0 -68 -27.5 -103.5t-53.5 -58.5q-23 -20 -35 -37.5t-12 -56.5h-128q0 83 31.5 124.5t58.5 65.5q21 18 29.5 30t8.5 36q0 26 -19 45t-45 19t-45 -19t-19 -45h-128q0 79 56 135.5t136 56.5q79 0 135.5 -56t56.5 -136zM448 128h128v128h-128v-128zM960 448
q0 -93 -35 -174.5t-96 -142.5t-142.5 -96t-174.5 -35t-174.5 35t-142.5 96t-96 142.5t-35 174.5t35 174.5t96 142.5t142.5 96t174.5 35t174.5 -35t142.5 -96t96 -142.5t35 -174.5zM896 448q0 79 -30 149t-82.5 122.5t-122 82.5t-149.5 30q-79 0 -149 -30t-122.5 -82.5
t-82.5 -122t-30 -149.5q0 -79 30 -149t82.5 -122.5t122 -82.5t149.5 -30q79 0 149 30t122.5 82.5t82.5 122t30 149.5z" />
    <glyph glyph-name="uniE403" unicode="exception" 
d="M448 704h128v-320h-128v320zM448 192h128v128h-128v-128zM960 448q0 -93 -35 -174.5t-96 -142.5t-142.5 -96t-174.5 -35t-174.5 35t-142.5 96t-96 142.5t-35 174.5t35 174.5t96 142.5t142.5 96t174.5 35t174.5 -35t142.5 -96t96 -142.5t35 -174.5zM896 448q0 79 -30 149
t-82.5 122.5t-122 82.5t-149.5 30q-79 0 -149 -30t-122.5 -82.5t-82.5 -122t-30 -149.5q0 -79 30 -149t82.5 -122.5t122 -82.5t149.5 -30q79 0 149 30t122.5 82.5t82.5 122t30 149.5z" />
    <glyph glyph-name="uniE500" unicode="photo&#x2d;camera" 
d="M896 704h-128l-128 128h-256l-128 -128h-128q-26 0 -45 -19t-19 -45v-576q0 -26 19 -45t45 -19h768q26 0 45 19t19 45v576q0 26 -19 45t-45 19zM512 128q-46 0 -87 17.5t-71.5 48t-48 71.5t-17.5 87t17.5 87t48 71.5t71.5 48t87 17.5t87 -17.5t71.5 -48t48 -71.5
t17.5 -87t-17.5 -87t-48 -71.5t-71.5 -48t-87 -17.5zM640 352q0 -53 -37.5 -90.5t-90.5 -37.5t-90.5 37.5t-37.5 90.5t37.5 90.5t90.5 37.5t90.5 -37.5t37.5 -90.5z" />
    <glyph glyph-name="uniE501" unicode="image" 
d="M608 640q40 0 68 -28t28 -68t-28 -68t-68 -28t-68 28t-28 68t28 68t68 28zM896 832h-768q-26 0 -45 -19t-19 -45v-640q0 -26 19 -45t45 -19h768q26 0 45 19t19 45v640q0 26 -19 45t-45 19zM896 288l-128 128l-160 -160l-256 256l-224 -224v480v0v0h768v0v0v-480z" />
    <glyph glyph-name="uniE502" unicode="image&#x2d;export" 
d="M768 192v160l-64 64l-160 -160l-256 256l-224 -224v480v0v0h768v0v0v-448h64v448q0 27 -19 45.5t-45 18.5h-768q-26 0 -45 -18.5t-19 -45.5v-640q0 -26 19 -45t45 -19h512v128h192zM544 640q-40 0 -68 -28t-28 -68t28 -68t68 -28t68 28t28 68t-28 68t-68 28zM640 64h192
v-128l192 160l-192 160v-128h-192v-64z" />
    <glyph glyph-name="uniE503" unicode="zoom&#x2d;actual&#x2d;size" 
d="M0 896v-256l256 256h-256zM768 896l256 -256v256h-256zM247 704q-23 0 -39 -16t-16 -39v-402q0 -23 16 -39t39 -16h530q23 0 39 16t16 39v402q0 23 -16 39t-39 16h-530v0zM768 640v-320l-96 128l-96 -128l-160 192l-160 -192v320h512zM576 576q-27 0 -45.5 -18.5
t-18.5 -45.5t18.5 -45.5t45.5 -18.5t45.5 18.5t18.5 45.5t-18.5 45.5t-45.5 18.5zM0 256v-256h256zM1024 256l-256 -256h256v256z" />
    <glyph glyph-name="uniE504" unicode="zoom&#x2d;best&#x2d;fit" 
d="M777 704h-530q-23 0 -39 -16t-16 -39v-402q0 -23 16 -39t39 -16h530q23 0 39 16t16 39v402q0 23 -16 39t-39 16zM768 320l-96 128l-96 -128l-160 192l-160 -192v320h512v-320zM0 640l192 -192l-192 -192v384zM320 0l192 192l192 -192h-384zM704 896l-192 -192l-192 192
h384zM1024 640v-384l-192 192zM512 512q0 27 18.5 45.5t45.5 18.5t45.5 -18.5t18.5 -45.5t-18.5 -45.5t-45.5 -18.5t-45.5 18.5t-18.5 45.5z" />
    <glyph glyph-name="uniE505" unicode="image&#x2d;resize" 
d="M855 151l-151 150v595h-640v-640h595l150 -151l-105 -105h256v256zM128 320v512h512v-467l-233 234l105 105h-256v-256l105 105l234 -233h-467v0z" />
    <glyph glyph-name="uniE506" unicode="crop" 
d="M0 768h128v-128h-128v128zM896 256v-128h128v128h-128zM832 704q0 26 -19 45t-45 19h-384v-128h320v-640h128v704zM192 192q0 -26 19 -45t45 -19h384v128h-320v640h-128v-704z" />
    <glyph glyph-name="uniE507" unicode="mirror" 
d="M384 832h-320v-768h320v768zM320 128v0v0h-192v0v0v640v0v0h192v0v0v-640v0zM512 0h-64v896h64v-896zM576 832h320v-768h-320v768z" />
    <glyph glyph-name="uniE508" unicode="flip&#x2d;horizontal" 
d="M896 64h-320v768zM128 64l320 768v-768h-320zM384 512l-160 -384h160v384z" />
    <glyph glyph-name="uniE509" unicode="flip&#x2d;vertical" 
d="M128 384h768l-768 -320v320zM128 832v-320h768zM192 576v160l384 -160h-384z" />
    <glyph glyph-name="uniE50A" unicode="rotate" 
d="M512 64q12 0 24 1t24 3v-65l-24 -2t-24 -1t-24 0.5t-24 2.5v65q12 -2 24 -3t24 -1zM280 78q19 -15 40 -27t43 -21l32 56q-22 9 -43 21t-40 27zM158 235q9 -22 21.5 -43t26.5 -40l56 32q-15 19 -27 40t-21 43zM512 704v-128l256 160l-256 160v-128q-12 0 -24 -0.5
t-24 -2.5q-27 -3 -52 -10t-49 -17q-22 -9 -43 -21.5t-40 -26.5q-21 -16 -39.5 -34.5t-34.5 -39.5q-15 -19 -27 -40t-21 -43q-10 -24 -17 -49t-10 -52l-2 -24t-1 -24t0.5 -24t2.5 -24h65q-2 12 -3 24t-1 24t1 24t3 24q2 18 7 35t11 34q9 22 21 43t27 40q11 14 23.5 26.5
t26.5 23.5q19 15 40 27t43 21q17 6 34 11t35 7q12 2 24 3t24 1zM893 432h-65q2 -12 3 -24t1 -24t-1 -24t-3 -24h65l2 24t1 24t-0.5 24t-2.5 24zM762 184l56 -32q14 19 26 40t22 43l-56 32q-9 -22 -21 -43t-27 -40zM629 86l32 -56q22 9 43 21.5t40 26.5l-32 56
q-19 -15 -40 -27t-43 -21z" />
    <glyph glyph-name="uniE50B" unicode="rotate&#x2d;right" 
d="M640 64v768l320 -768h-320zM576 64h-512l512 320v-320zM512 269l-225 -141h225v141zM128 640v-256h64v192h192v-128l192 160l-192 160v-128h-256z" />
    <glyph glyph-name="uniE50C" unicode="rotate&#x2d;left" 
d="M64 64l320 768v-768h-320zM448 384l512 -320h-512v320zM512 128h225l-225 141v-141v0zM640 640v128l-192 -160l192 -160v128h192v-192h64v256h-256z" />
    <glyph glyph-name="uniE50D" unicode="brush" 
d="M64 0l59 8t133 24q33 7 69.5 23.5t71.5 51.5q43 43 48.5 83.5t-5 72.5t-26.5 51l-16 19l-19.5 16t-51.5 27t-72.5 5.5t-83.5 -47.5q-35 -35 -37.5 -83t-1.5 -97q1 -90 -33.5 -122l-34.5 -32v0zM941 832l-45 45q-19 19 -45.5 19t-45.5 -19l-396 -397q17 -8 31 -17.5
t24 -17.5q8 -6 13.5 -11t9.5 -8v0q0 -1 0.5 -1.5l0.5 -0.5l0.5 -0.5l1.5 -1.5v0q3 -3 8 -8.5t11 -13.5q8 -10 17.5 -24t17.5 -31l397 397q19 18 19 44.5t-19 45.5v0zM896 787l-341 -342q-7 9 -12.5 15t-8.5 9q-4 4 -10 9.5t-14 12.5l341 341l45 -45v0z" />
    <glyph glyph-name="uniE50E" unicode="palette" 
d="M412 447l320 320q-3 8 -7 16.5t-9 15.5q-36 62 -90 99.5t-125 52.5q-4 1 -7.5 1.5t-7.5 1.5q-76 13 -149.5 -2.5t-143.5 -60.5q-71 -45 -116 -109t-65 -146q-19 -82 -7.5 -159.5t54.5 -149.5q21 -36 47 -65t56 -52q6 38 22 76.5t51 73.5q47 47 93.5 65.5t83.5 21.5z
M576 832q27 0 45.5 -18.5t18.5 -45.5t-18.5 -45.5t-45.5 -18.5t-45.5 18.5t-18.5 45.5t18.5 45.5t45.5 18.5zM384 896q27 0 45.5 -18.5t18.5 -45.5t-18.5 -45.5t-45.5 -18.5t-45.5 18.5t-18.5 45.5t18.5 45.5t45.5 18.5zM128 448q-27 0 -45.5 18.5t-18.5 45.5t18.5 45.5
t45.5 18.5t45.5 -18.5t18.5 -45.5t-18.5 -45.5t-45.5 -18.5zM128 704q0 27 18.5 45.5t45.5 18.5t45.5 -18.5t18.5 -45.5t-18.5 -45.5t-45.5 -18.5t-45.5 18.5t-18.5 45.5zM1005 678l-45 45q-19 19 -45.5 19t-45.5 -19l-307 -307q17 -8 31 -17.5t25 -17.5q8 -6 13.5 -11
t8.5 -9l23 -25q8 -10 17 -24t18 -31l307 307q19 18 19 45t-19 45v0zM709 381q-8 9 -13.5 15t-8.5 9q-3 4 -9 9.5t-15 12.5l252 251l45 -45l-251 -252v0zM551 43q-35 -35 -71.5 -51.5t-69.5 -23.5q-75 -16 -133.5 -24l-58.5 -8l34.5 32t33.5 122q-1 49 1.5 96.5t37.5 83.5
q42 42 83 47.5t73 -5.5t51.5 -27l19.5 -16l15.5 -19t26.5 -51t5.5 -72.5t-48.5 -83.5v0z" />
    <glyph glyph-name="uniE50F" unicode="background" 
d="M512 192v-64q-79 0 -135.5 56t-56.5 136h64q0 -53 37.5 -90.5t90.5 -37.5zM832 336q0 -70 -25 -131t-68.5 -106.5t-102 -72t-124.5 -26.5t-124.5 26.5t-102 72t-68.5 106.5t-25 131q0 98 50 198t110 180.5t110 131l50 50.5l50 -50.5t110 -131t110 -180.5t50 -198z
M768 336q0 35 -9.5 74t-28 81.5t-45.5 88.5t-63 94q-30 40 -59 73.5t-51 57.5q-22 -24 -51 -57.5t-59 -73.5q-36 -48 -63 -94t-45.5 -88.5t-28 -81.5t-9.5 -74q0 -56 20 -105.5t55 -86.5t81.5 -58.5t99.5 -21.5t99.5 21.5t81.5 58.5t55 86.5t20 105.5z" />
    <glyph glyph-name="uniE510" unicode="line" 
d="M960 851l-851 -851l-45 45l851 851z" />
    <glyph glyph-name="uniE511" unicode="brightness&#x2d;contrast" 
d="M331 267q19 -19 19 -45.5t-19 -45.5l-45 -45q-19 -18 -45.5 -18t-45.5 18q-18 19 -18 45.5t18 45.5l45 45q19 19 45.5 19t45.5 -19zM512 704q26 0 45 19t19 45v64q0 26 -19 45t-45 19t-45 -19t-19 -45v-64q0 -26 19 -45t45 -19zM784 629l45 45q18 19 18 45.5t-18 45.5
q-19 18 -45.5 18t-45.5 -18l-45 -45q-19 -19 -19 -45.5t19 -45.5t45.5 -19t45.5 19zM240 629q19 -19 45.5 -19t45.5 19t19 45.5t-19 45.5l-45 45q-19 18 -45.5 18t-45.5 -18q-18 -19 -18 -45.5t18 -45.5l45 -45v0zM256 448q0 26 -19 45t-45 19h-64q-26 0 -45 -19t-19 -45
t19 -45t45 -19h64q26 0 45 19t19 45zM784 267q-19 19 -45.5 19t-45.5 -19t-19 -45.5t19 -45.5l45 -45q19 -18 45.5 -18t45.5 18q18 19 18 45.5t-18 45.5zM896 512h-64q-26 0 -45 -19t-19 -45t19 -45t45 -19h64q26 0 45 19t19 45t-19 45t-45 19zM704 448q0 -79 -56 -135.5
t-136 -56.5q-79 0 -135.5 56t-56.5 136q0 79 56 135.5t136 56.5q79 0 135.5 -56t56.5 -136zM640 448q0 53 -37.5 90.5t-90.5 37.5v-256q53 0 90.5 37.5t37.5 90.5zM512 192q-26 0 -45 -19t-19 -45v-64q0 -26 19 -45t45 -19t45 19t19 45v64q0 26 -19 45t-45 19z" />
    <glyph glyph-name="uniE512" unicode="saturation" 
d="M960 768v-64h-389q-10 -28 -35 -46t-56 -18t-56 18t-35 46h-325v64h325q10 28 35 46t56 18t56 -18t35 -46h389zM736 576q-31 0 -56 -18t-35 -46h-581v-64h581q10 -28 35 -46t56 -18t56 18t35 46h133v64h-133q-10 28 -35 46t-56 18zM352 320q-31 0 -56 -18t-35 -46h-197
v-64h197q10 -28 35 -46t56 -18t56 18t35 46h517v64h-517q-10 28 -35 46t-56 18z" />
    <glyph glyph-name="uniE513" unicode="invert&#x2d;colors" 
d="M640 896l-128 -96l128 -96v64h128v-128h-64l96 -128l96 128h-64v192h-192v64zM64 832v-384h384v384h-384zM448 448v-384h384v384h-384zM128 768h256v-256h-256v256z" />
    <glyph glyph-name="uniE514" unicode="opacity" 
d="M128 832v-704h704v704h-704zM192 768h192v-192h192v192h192v-192h-192v-192h192v-192h-192v192h-192v-192h-192v192h192v192h-192v192z" />
    <glyph glyph-name="uniE515" unicode="greyscale" 
d="M64 832q-27 0 -45.5 -18.5t-18.5 -45.5v-640q0 -27 18.5 -45.5t45.5 -18.5h832q27 0 45.5 18.5t18.5 45.5v640q0 27 -18.5 45.5t-45.5 18.5h-832zM64 768h832v-640h-832v640zM160 704q-13 0 -22.5 -9.5t-9.5 -22.5v-448q0 -13 9.5 -22.5t22.5 -9.5t22.5 9.5t9.5 22.5v448
q0 13 -9.5 22.5t-22.5 9.5zM288 704q-13 0 -22.5 -9.5t-9.5 -22.5v-448q0 -13 9.5 -22.5t22.5 -9.5t22.5 9.5t9.5 22.5v448q0 13 -9.5 22.5t-22.5 9.5zM416 704q-13 0 -22.5 -9.5t-9.5 -22.5v-448q0 -13 9.5 -22.5t22.5 -9.5t22.5 9.5t9.5 22.5v448q0 13 -9.5 22.5
t-22.5 9.5zM544 704q-13 0 -22.5 -9.5t-9.5 -22.5v-448q0 -13 9.5 -22.5t22.5 -9.5t22.5 9.5t9.5 22.5v448q0 13 -9.5 22.5t-22.5 9.5zM672 704q-13 0 -22.5 -9.5t-9.5 -22.5v-448q0 -13 9.5 -22.5t22.5 -9.5t22.5 9.5t9.5 22.5v448q0 13 -9.5 22.5t-22.5 9.5zM800 704
q-13 0 -22.5 -9.5t-9.5 -22.5v-448q0 -13 9.5 -22.5t22.5 -9.5t22.5 9.5t9.5 22.5v448q0 13 -9.5 22.5t-22.5 9.5zM800 696q10 0 17 -7t7 -17v-448q0 -10 -7 -17t-17 -7t-17 7t-7 17v448q0 10 7 17t17 7zM672 694q9 0 15.5 -6.5t6.5 -15.5v-448q0 -9 -6.5 -15.5t-15.5 -6.5
t-15.5 6.5t-6.5 15.5v448q0 9 6.5 15.5t15.5 6.5zM544 690q7 0 12.5 -5t5.5 -13v-448q0 -7 -5 -12.5t-13 -5.5q-7 0 -12.5 5t-5.5 13v448q0 7 5 12.5t13 5.5zM416 688q7 0 11.5 -4.5t4.5 -11.5v-448q0 -7 -4.5 -11.5t-11.5 -4.5t-11.5 4.5t-4.5 11.5v448q0 7 4.5 11.5
t11.5 4.5zM288 680q3 0 5.5 -2.5t2.5 -5.5v-448q0 -3 -2.5 -5.5t-5.5 -2.5t-5.5 2.5t-2.5 5.5v448q0 3 2.5 5.5t5.5 2.5z" />
    <glyph glyph-name="uniE516" unicode="blur" 
d="M768 320q0 -48 -13 -94t-43 -82t-79 -58t-121 -22q-48 0 -94 17.5t-82 50.5t-58 80.5t-22 107.5q0 72 40 125t88 107t88 119t40 161l40 -44.5t88 -116.5t88 -164t40 -187z" />
    <glyph glyph-name="uniE517" unicode="sharpen" 
d="M512 896l-256 -896h512zM512 663l171 -599h-342z" />
    <glyph glyph-name="uniE518" unicode="shape" 
d="M960 896h-640v-262q-55 -12 -101.5 -40.5t-81 -70t-54 -93.5t-19.5 -110q0 -66 25 -124.5t68.5 -102t102 -68.5t124.5 -25q58 0 110 19.5t93.5 54t70 81t40.5 101.5h262v640zM384 64q-53 0 -99.5 20t-81.5 55t-55 81.5t-20 99.5q0 45 14.5 85t40 73t61 56t76.5 34v0
q2 0 3.5 0.5t3.5 1.5h1.5h0.5q1 0 2.5 0.5t2.5 0.5t1.5 0.5t1.5 0.5h2.5t2.5 1h1h1q4 0 7.5 0.5t7.5 1.5h0.5h1.5h2.5h2.5t1.5 0.5t1.5 0.5h2.5h2.5h1.5h0.5h4h4q53 0 99.5 -20t81.5 -55t55 -81.5t20 -99.5v-4v-4v-0.5v-1.5v-2.5v-2.5t-0.5 -1.5t-0.5 -1.5v-2.5v-2.5v-1.5
v-0.5q-1 -4 -1.5 -7.5t-0.5 -7.5v-1v-1q-1 -1 -1 -2.5v-2.5t-0.5 -1.5t-0.5 -1.5t-0.5 -2.5t-0.5 -2.5v-0.5v-1.5q-1 -2 -1.5 -3.5t-0.5 -3.5v0q-11 -41 -34 -76.5t-56 -61t-73 -40t-85 -14.5v0zM896 320h-192q0 66 -25 124.5t-68.5 102t-102 68.5t-124.5 25v192h512v-512z
" />
    <glyph glyph-name="uniE519" unicode="round&#x2d;corners" 
d="M896 320q0 -53 -20 -99.5t-55 -81.5t-81.5 -55t-99.5 -20h-256q-53 0 -99.5 20t-81.5 55t-55 81.5t-20 99.5v256q0 53 20 99.5t55 81.5t81.5 55t99.5 20h256q53 0 99.5 -20t81.5 -55t55 -81.5t20 -99.5v-256z" />
    <glyph glyph-name="uniE51A" unicode="front&#x2d;element" 
d="M192 704v64h192v64h-256v-256h64v64v64zM640 192h128v512h-512v-512h320h64zM832 320v-192h-192v-64h256v256h-64z" />
    <glyph glyph-name="uniE51B" unicode="back&#x2d;element" 
d="M256 576h128v256h-256v-256h128zM192 768h128v-128h-128v128zM576 384h192v320h-320v-192h-192v-320h320v128v64zM832 320h-192v-256h256v256h-64zM832 128h-128v128h128v-128z" />
    <glyph glyph-name="uniE51C" unicode="forward&#x2d;element" 
d="M896 576v-512h-512v256h-256v512h512v-256h256zM832 512h-192v-192h-192v-192h384v384z" />
    <glyph glyph-name="uniE51D" unicode="backward&#x2d;element" 
d="M384 576v-512h512v512h-512zM832 128h-384v384h384v-384zM640 832h-512v-512h192v320h320v192z" />
    <glyph glyph-name="uniE51E" unicode="align&#x2d;left&#x2d;element" 
d="M256 768h448v-256h-448v256zM128 832h-64v-768h64v768zM960 384v-256h-704v256h704zM320 192h576v128h-576v-128z" />
    <glyph glyph-name="uniE51F" unicode="align&#x2d;center&#x2d;element" 
d="M832 384h-320v128h192v256h-192v64h-64v-64h-192v-256h192v-128h-320v-256h320v-64h64v64h320v256zM768 192h-576v128h576v-128z" />
    <glyph glyph-name="uniE520" unicode="align&#x2d;right&#x2d;element" 
d="M768 512h-448v256h448v-256zM896 64h64v768h-64v-768zM768 384v-256h-704v256h704zM704 320h-576v-128h576v128z" />
    <glyph glyph-name="uniE521" unicode="align&#x2d;top&#x2d;element" 
d="M192 256v448h256v-448h-256zM128 896v-64h768v64h-768zM576 704h256v-704h-256v704zM768 64v576h-128v-576h128z" />
    <glyph glyph-name="uniE522" unicode="align&#x2d;middle&#x2d;element" 
d="M576 832v-320h-128v192h-256v-192h-64v-64h64v-192h256v192h128v-320h256v320h64v64h-64v320h-256zM768 768v-576h-128v576h128z" />
    <glyph glyph-name="uniE523" unicode="align&#x2d;bottom&#x2d;element" 
d="M448 640v-448h-256v448h256zM896 0v64h-768v-64h768zM576 896h256v-704h-256v704zM640 832v-576h128v576h-128z" />
    <glyph glyph-name="uniE524" unicode="thumbnails&#x2d;up" 
d="M704 896h192v-192h-192v192zM384 896h192v-192h-192v192v0zM64 896h192v-192h-192v192zM64 576h832v-512h-832v512z" />
    <glyph glyph-name="uniE525" unicode="thumbnails&#x2d;right" 
d="M704 256h192v-192h-192v192zM704 575h192v-191h-192v191v0zM704 896h192v-192h-192v192v0zM64 896h512v-832h-512v832z" />
    <glyph glyph-name="uniE526" unicode="thumbnails&#x2d;down" 
d="M704 256h192v-192h-192v192zM384 256h192v-192h-192v192v0zM64 256h192v-192h-192v192zM64 896h832v-512h-832v512z" />
    <glyph glyph-name="uniE527" unicode="thumbnails&#x2d;left" 
d="M64 896v-192h192v192h-192zM384 896v-832h512v832h-512zM64 576v-192h192v192h-192zM64 256v-192h192v192h-192z" />
    <glyph glyph-name="uniE528" unicode="full&#x2d;screen" 
d="M0 896h320v-128h-192v-192h-128v320zM128 320h-128v-320h320v128h-192v192zM704 896v-128h192v-192h128v320h-320zM896 128h-192v-128h320v320h-128v-192z" />
    <glyph glyph-name="uniE529" unicode="full&#x2d;screen&#x2d;exit" 
d="M320 896h-128v-192h-192v-128h320v320zM192 0h128v320h-320v-128h192v-192zM1024 576v128h-192v192h-128v-320h320zM832 192h192v128h-320v-320h128v192z" />
    <glyph glyph-name="uniE52A" unicode="background&#x2d;remove" 
d="M636 98l46 -46q-37 -25 -80 -38.5t-90 -13.5q-66 0 -124.5 26.5t-102 72t-68.5 106.5t-25 131q0 42 10 84.5t27 83.5l50 -49q-11 -32 -17 -62t-6 -57q0 -56 20 -105.5t55 -86.5t81.5 -58.5t99.5 -21.5q34 0 65 9t59 25zM512 128v64q-53 0 -90.5 37.5t-37.5 90.5h-64
q0 -79 56 -135.5t136 -56.5zM960 45l-45 -45l-851 851l45 45l218 -217q32 47 65.5 87t60 68.5t43 45l16.5 16.5l50 -50.5t110 -131t110 -180.5t50 -198q0 -36 -7 -70.5t-20 -65.5zM768 336q0 35 -9.5 74t-28 81.5t-45.5 88.5t-63 94q-30 40 -59 73.5t-51 57.5
q-22 -24 -51 -57.5t-59 -73.5q-2 -3 -4 -5.5t-4 -5.5q-1 -2 -2.5 -3.5t-2.5 -3.5q-1 -1 -1.5 -2t-1.5 -2q-1 -2 -2.5 -4t-3.5 -4q0 -1 -0.5 -1t-0.5 -1q-1 -2 -3 -4.5t-3 -4.5v0h-1l383 -383v0v0q1 3 1.5 5.5t1.5 4.5v0.5v0.5q0 2 1 4.5t1 4.5v0.5v1.5q1 2 1.5 4t0.5 4
l0.5 1l0.5 1q0 2 0.5 4t0.5 4v1.5v1.5q1 2 1 4v3q1 1 1 2v2v3v4q0 1 0.5 1.5t0.5 1.5v4v4v1.5v1.5q1 3 1 5.5v5.5v0z" />
    <glyph glyph-name="uniE600" unicode="page&#x2d;properties" 
d="M941 0l-45 -45q-19 -19 -45.5 -19t-44.5 19l-186 186q-18 -6 -37 -9.5t-39 -3.5q-46 0 -87 17.5t-71.5 48t-48 71.5t-17.5 87q0 20 3.5 39t9.5 36l98 -98q18 -18 45 -18t45 18l46 46q18 18 18 44.5t-18 45.5l-98 98q17 6 36 9.5t39 3.5q46 0 87 -17.5t71.5 -48t48 -71.5
t17.5 -87q0 -20 -3.5 -39t-9.5 -36l186 -186q19 -19 19 -45.5t-19 -45.5v0zM896 45l-173 173q-9 -13 -20.5 -24.5t-24.5 -20.5l173 -173l45 45v0v0zM192 832h448v-192h192v-256h64v320l-192 192h-512q-27 0 -45.5 -18.5t-18.5 -45.5v-768q0 -27 18.5 -45.5t45.5 -18.5h320
v64h-320v768z" />
    <glyph glyph-name="uniE601" unicode="bold" 
d="M256 768h232q38 0 66 -1.5t47 -4.5q18 -4 35 -10.5t32 -16.5q14 -10 26.5 -23.5t22.5 -29.5q10 -17 14.5 -35.5t4.5 -39.5q0 -22 -6 -43t-18 -39q-12 -19 -28.5 -33t-37.5 -24q30 -8 52.5 -22.5t37.5 -35.5q16 -20 24 -44.5t8 -51.5q0 -22 -5 -43t-16 -42
q-10 -21 -23.5 -37.5t-31.5 -28.5t-39.5 -20t-47.5 -10q-16 -2 -55 -3t-101 -2h-193v640v0zM384 661v-148h62q38 0 61 1t33 2q16 2 29 7.5t23 15.5q9 9 14 21.5t5 28.5q0 14 -4 26.5t-13 21.5q-8 9 -20 14.5t-28 7.5q-10 1 -37.5 1.5t-73.5 0.5h-51v0zM384 407v-171h97
q35 0 57 1t31 3q15 2 26.5 8.5t20.5 16.5q10 10 14 23.5t4 31.5q0 14 -3.5 26.5t-10.5 22.5t-17 17t-23 12q-13 4 -41.5 6.5t-73.5 2.5h-81z" />
    <glyph glyph-name="uniE602" unicode="italic" 
d="M754 704l14 64h-370l-14 -64h118l-108 -512h-124l-14 -64h370l14 64h-118l108 512h124z" />
    <glyph glyph-name="uniE603" unicode="underline" 
d="M256 128h512v-64h-512v64zM640 832v-448q0 -17 -5 -25.5t-16 -15.5q-17 -11 -45 -17t-62 -6t-62 6t-45 17q-11 7 -16 15.5t-5 25.5v448h-128v-448q0 -53 22 -89.5t58 -59.5t82 -33t94 -10t94 10t82 33t58 59.5t22 89.5v448h-128z" />
    <glyph glyph-name="uniE604" unicode="font&#x2d;family" 
d="M448 128v512h-190l-2 128h512v-128h-192v-512h-128z" />
    <glyph glyph-name="uniE605" unicode="foreground&#x2d;color" 
d="M599 768h-174l-233 -640h128l47 128h290l47 -128h128l-233 640v0zM413 384l99 272l99 -272h-198v0z" />
    <glyph glyph-name="uniE606" unicode="convert&#x2d;lowercase" 
d="M960 128h-88v72h-1q-21 -36 -51.5 -54t-70.5 -18q-29 0 -52 8t-40 24t-25.5 37t-8.5 48q0 56 33 89t98 43l118 17q0 42 -20 63.5t-61 21.5q-35 0 -67.5 -12.5t-61.5 -36.5v79q32 19 68.5 28t77.5 9q76 0 114 -37t38 -112v-269v0v0zM873 334l-84 -12q-20 -3 -34.5 -7.5
t-24.5 -11.5t-15 -19t-5 -30q0 -12 4.5 -22.5t13.5 -18.5t21.5 -12t27.5 -4q21 0 38 7t30 22q14 14 21 32.5t7 40.5v35v0zM480 128h96l-208 640h-96l-208 -640h96l52 160h216zM243 384l77 236l77 -236h-154v0z" />
    <glyph glyph-name="uniE607" unicode="convert&#x2d;uppercase" 
d="M401 128h-88v72h-2q-20 -36 -50.5 -54t-70.5 -18q-30 0 -53 8t-40 24q-16 16 -24.5 37t-8.5 48q0 56 32.5 89t97.5 43l119 17q0 42 -20.5 63.5t-60.5 21.5q-36 0 -68 -12.5t-61 -36.5v79q32 19 68.5 28t77.5 9q76 0 113.5 -37t37.5 -112v-269h1v0zM313 334l-84 -12
q-19 -3 -34 -7.5t-25 -11.5t-15 -19t-5 -30q0 -12 4.5 -22.5t14.5 -18.5q9 -8 21 -12t27 -4q21 0 38 7t31 22q13 14 20 32.5t7 40.5v35v0zM864 128h96l-208 640h-96l-208 -640h96l52 160h216zM627 384l77 236l77 -236h-154v0z" />
    <glyph glyph-name="uniE608" unicode="strikethrough" 
d="M788 320q0 36 6.5 62t20.5 43q13 17 31 25t39 8q15 0 27 -4.5t22 -13.5q11 -10 18 -23.5t11 -32.5l55 10q-5 27 -16 48.5t-29 36.5q-17 15 -39.5 22.5t-50.5 7.5q-22 0 -42 -5.5t-39 -16.5q-18 -11 -32 -27.5t-23 -38.5t-13.5 -47t-4.5 -54h-51v2v2q0 20 -2.5 38.5
t-8.5 35.5q-5 18 -12 32.5t-16 27.5q-9 12 -20.5 21.5t-25.5 16.5q-14 6 -29 9.5t-30 3.5q-29 0 -52 -12t-41 -37v180h-57v-320h-90v52q0 20 -0.5 34.5t-2.5 22.5q-2 12 -6.5 22.5t-11.5 19.5q-6 8 -16 15t-24 12q-13 6 -30.5 8.5t-39.5 2.5t-41.5 -3t-35.5 -9
q-17 -7 -29.5 -16t-21.5 -21t-15 -27.5t-10 -35.5l56 -8q5 19 12 32.5t17 21.5q9 8 24 11.5t35 3.5q22 0 38.5 -5t27.5 -16q8 -7 12 -20.5t4 -32.5v-5.5v-10.5q-17 -6 -42.5 -11.5t-60.5 -9.5q-17 -3 -29.5 -5t-21.5 -5q-10 -3 -19 -7t-18 -10h-45v-64h2q-1 -6 -1.5 -11.5
t-0.5 -12.5q0 -22 7.5 -41t22.5 -34t36.5 -22t49.5 -7q17 0 32.5 3t30.5 9t30 16.5t31 24.5h1q1 -13 3.5 -28.5t7.5 -24.5h60q-5 10 -9 25t-6 27q-1 9 -2 28t-1 48h90v-128h53v54q17 -27 40.5 -40.5t53.5 -13.5t56 13t48 38q12 15 21 34.5t15 42.5h63q5 -24 14 -44t23 -35
q21 -25 49 -37t63 -12q27 0 50.5 9t42.5 26q18 17 29.5 40.5t17.5 52.5h1v64h-236v0zM226 235q-6 -14 -15.5 -24.5t-22.5 -18.5q-12 -8 -27 -12t-32 -4q-16 0 -29 4.5t-21 12.5q-9 8 -13.5 18.5t-4.5 22.5q0 6 1 11.5t3 10.5h168q-1 -6 -3 -11.5t-4 -9.5v0zM437 321
q0 34 6.5 59.5t20.5 42.5q14 18 30 26.5t35 8.5t35 -8.5t29 -25.5t19.5 -43t6.5 -61h-183q1 0 1 0.5v0.5v0zM592 214q-14 -17 -30 -26t-35 -9q-23 0 -41.5 12t-32.5 36q-3 5 -5.5 12.5t-4.5 16.5h169q-4 -12 -9 -22.5t-11 -19.5zM939 201q-11 -11 -25.5 -16.5t-31.5 -5.5
q-21 0 -38 8t-30 25q-6 8 -11 19t-9 25h171q-3 -18 -10 -32t-16 -23z" />
    <glyph glyph-name="uniE609" unicode="sub&#x2d;script" 
d="M397 352l179 -179l-45 -45l-179 179l-179 -179l-45 45l179 179l-179 179l45 45l179 -179l179 179l45 -45zM733 64h162v-64h-255v24q0 12 2.5 23t7.5 20q5 10 11.5 18.5t13.5 16.5l16 14t17 13q9 5 17.5 10.5t16.5 10.5t15.5 9.5t13.5 9.5q6 4 11.5 8.5t10.5 8.5
q4 5 7 9.5t6 8.5q2 5 3 10t1 10q0 10 -3.5 17.5t-10.5 12.5t-17.5 8t-25.5 3q-25 0 -48.5 -8t-46.5 -24v61q25 13 53.5 19.5t59.5 6.5q15 0 28 -1.5t25 -4.5q11 -3 21 -7.5t18 -10.5t14 -13t11 -15q4 -8 6 -17.5t2 -19.5q0 -11 -2 -20.5t-6 -18.5q-4 -8 -9.5 -16t-12.5 -14
q-7 -7 -14.5 -13.5t-16.5 -12.5t-18 -11.5t-19 -10.5q-6 -4 -12 -7.5t-12 -7.5t-11.5 -7.5t-9.5 -6.5q-5 -4 -10.5 -9.5t-9.5 -11.5v0z" />
    <glyph glyph-name="uniE60A" unicode="sup&#x2d;script" 
d="M397 352l179 -179l-45 -45l-179 179l-179 -179l-45 45l179 179l-179 179l45 45l179 -179l179 179l45 -45zM733 576h162v-64h-255v24q0 12 2.5 23t7.5 20q5 10 11.5 18.5t13.5 16.5l16 14t17 13q9 5 17.5 10.5t16.5 10.5t15.5 9.5t13.5 9.5q6 4 11.5 8.5t10.5 8.5
q4 5 7 9.5t6 8.5q2 5 3 10t1 10q0 10 -3.5 17.5t-10.5 12.5t-17.5 8t-25.5 3q-25 0 -48.5 -8t-46.5 -24v60q25 14 53.5 20.5t59.5 6.5q15 0 28 -1.5t25 -4.5q11 -3 21 -7.5t18 -10.5t14 -13t11 -15q4 -8 6 -17.5t2 -19.5q0 -11 -2 -20.5t-6 -18.5q-4 -8 -9.5 -16t-12.5 -15
q-7 -6 -14.5 -12.5t-16.5 -12.5t-18 -11.5t-19 -10.5q-6 -4 -12 -7.5t-12 -7.5t-11.5 -7.5t-9.5 -6.5q-5 -4 -10.5 -9.5t-9.5 -11.5z" />
    <glyph glyph-name="uniE60B" unicode="div" 
d="M0 128v12h14q12 0 21 4.5t14 13.5q3 6 4.5 18t1.5 31v290q0 21 -2 34t-6 18q-6 8 -14 11.5t-19 3.5h-14v12h155q43 0 75.5 -5.5t54.5 -17.5q22 -11 40 -30t32 -46q13 -26 20 -57t7 -66q0 -46 -12 -85.5t-36 -70.5q-27 -35 -68.5 -52.5t-97.5 -17.5h-170v0zM109 160
q18 -4 33 -6.5t27 -2.5q32 0 59 13.5t49 40.5q21 27 32 63.5t11 82.5t-11 83t-32 63q-22 27 -49.5 40.5t-61.5 13.5q-12 0 -26.5 -2.5t-30.5 -7.5v-381v0zM595 140v-12h-166v12h14q12 0 20.5 4t14.5 12q3 6 4.5 18.5t1.5 32.5v290q0 17 -0.5 28t-2.5 17q-2 4 -5 7.5t-7 6.5
q-6 4 -12.5 6t-13.5 2h-14v12h166v-12h-14q-12 0 -20.5 -4t-14.5 -12q-3 -6 -5 -18.5t-2 -32.5v-290q0 -17 1 -28t3 -17q1 -4 4 -7.5t8 -6.5q6 -4 12.5 -6t13.5 -2h14v0zM1024 576v-12q-10 -2 -17 -5.5t-12 -9.5q-7 -8 -13.5 -20t-11.5 -28l-127 -373h-10l-136 378
q-5 14 -8.5 23t-5.5 12q-4 5 -8 9t-9 7t-11.5 4.5t-14.5 2.5v12h148v-12q-12 -1 -20.5 -4t-11.5 -6q-4 -4 -6 -9t-2 -10q0 -8 3 -21t9 -30l93 -257l85 254q6 19 9.5 32t3.5 20q0 5 -2 9.5t-6 8.5t-10.5 7t-15.5 5q-1 0 -2 0.5t-3 0.5v12h112v0zM1024 768h-1024v-64h1024v64z
" />
    <glyph glyph-name="uniE60C" unicode="all" 
d="M241 275h-138l-24 -69q-4 -13 -6 -22.5t-2 -16.5q0 -5 1.5 -9t5.5 -8t12.5 -6.5t21.5 -3.5v-12h-112v12q11 2 18 5.5t11 7.5q6 7 13.5 23t15.5 40l125 360h9l123 -364q8 -22 14.5 -36.5t12.5 -20.5q6 -7 14.5 -10.5t19.5 -4.5v-12h-140v12q11 1 18 3t11 6q4 3 5.5 7.5
t1.5 10.5q0 7 -2.5 18t-7.5 27l-21 63v0zM233 299l-60 177l-61 -177h121zM689 252l8 -2l-30 -122h-274v12h13q11 0 19 4.5t13 14.5q3 5 4.5 17t1.5 32v306q0 21 -2 25.5t-6 9.5q-5 8 -12.5 11.5t-17.5 3.5h-13v12h160v-12q-14 0 -24 -1.5t-15 -5.5q-6 -3 -10 -7.5t-6 -9.5
q-2 -6 -3 -9.5t-1 -23.5v-299q0 -14 1 -23.5t3 -14.5q2 -4 4 -6.5t6 -3.5q3 -2 13 -3t27 -1h26q21 0 35 2t22 6q9 4 16.5 10.5t14.5 16.5q6 10 13 25t14 36v0zM1015 252l9 -2l-30 -122h-275v12h14q11 0 19 4.5t13 14.5q3 5 4 17t1 32v306q0 21 -1.5 25.5t-5.5 9.5
q-5 8 -12.5 11.5t-17.5 3.5h-14v12h161v-12q-14 0 -24 -1.5t-16 -5.5q-5 -3 -9 -7.5t-6 -9.5q-2 -6 -3 -9.5t-1 -23.5v-299q0 -14 1 -23.5t3 -14.5q1 -4 3.5 -6.5t5.5 -3.5q4 -2 14 -3t27 -1h26q20 0 34.5 2t22.5 6t15.5 10.5t14.5 16.5t14 25t13 36v0zM1024 768h-1024v-64
h1024v64z" />
    <glyph glyph-name="uniE60D" unicode="h&#x31;" 
d="M257 384h191v114q0 17 -1 28t-3 16q-2 4 -5.5 7.5t-8.5 6.5q-7 4 -15 6t-15 2h-16v12h192v-12h-16q-7 0 -14.5 -2t-14.5 -5q-5 -3 -8.5 -7t-5.5 -9t-3 -17.5t-1 -39.5v-292q0 -6 1 -15.5t3 -14.5q2 -4 5.5 -7.5t8.5 -6.5q7 -4 14.5 -6t14.5 -2h16v-12h-192v12h16
q13 0 23.5 4t16.5 12q4 5 6 17.5t2 32.5v146h-191v-146q0 -17 1 -28t3 -16q2 -4 5 -7.5t9 -6.5q7 -4 14 -6t15 -2h16v-12h-192v12h16q13 0 23.5 4t16.5 12q4 5 6 16t2 20v292q0 27 -1 40t-3 18q-2 4 -5 7.5t-8 6.5q-8 4 -16 6t-15 2h-16v12h192v-12h-16q-8 0 -15 -2t-14 -5
q-5 -3 -8.5 -7t-5.5 -9t-3 -16t-1 -27v-114v0zM640 524l126 52h2v-371q0 -18 1 -29.5t2 -16.5q2 -4 5 -7.5t8 -6.5q5 -2 19 -3.5t29 -1.5v-12h-192v12q16 0 29.5 1.5t18.5 3.5q4 3 7.5 6t4.5 7q2 4 3 16t1 31v237q0 24 -1 39.5t-2 22.5q-1 5 -3 9t-5 6t-7 3.5t-8 1.5
q-6 0 -14.5 -2.5t-18.5 -7.5l-5 10v0zM1024 768h-1024v-64h1024v64z" />
    <glyph glyph-name="uniE60E" unicode="h&#x32;" 
d="M257 384h191v114q0 17 -1 28t-3 16q-2 4 -5.5 7.5t-8.5 6.5q-7 4 -15 6t-15 2h-16v12h192v-12h-16q-7 0 -14.5 -2t-14.5 -5q-5 -3 -8.5 -7t-5.5 -9t-3 -17.5t-1 -39.5v-292q0 -6 1 -15.5t3 -14.5q2 -4 5.5 -7.5t8.5 -6.5q7 -4 14.5 -6t14.5 -2h16v-12h-192v12h16
q13 0 23.5 4t16.5 12q4 5 6 17.5t2 32.5v146h-191v-146q0 -17 1 -28t3 -16q2 -4 5 -7.5t9 -6.5q7 -4 14 -6t15 -2h16v-12h-192v12h16q13 0 23.5 4t16.5 12q4 5 6 16t2 20v292q0 27 -1 40t-3 18q-2 4 -5 7.5t-8 6.5q-8 4 -16 6t-15 2h-16v12h192v-12h-16q-8 0 -15 -2t-14 -5
q-5 -3 -8.5 -7t-5.5 -9t-3 -16t-1 -27v-114v0zM930 212l-31 -84h-259v12q57 52 97.5 94.5t63.5 75.5t34.5 63.5t11.5 57.5q0 21 -6 38t-19 31q-13 13 -28 19.5t-33 6.5q-16 0 -30.5 -4.5t-27.5 -13.5q-13 -10 -22.5 -24t-15.5 -32h-12q4 30 14 53t27 39t38 24t46 8
q27 0 49 -8.5t40 -25.5t27 -37.5t9 -43.5q0 -17 -4 -33.5t-12 -33.5q-12 -26 -31.5 -54t-45.5 -57q-41 -44 -66 -70.5t-35 -35.5h115q17 0 29.5 0.5t19.5 1.5q7 2 13 4.5t12 6.5t11 9.5t9 12.5h12v0zM1024 768h-1024v-64h1024v64z" />
    <glyph glyph-name="uniE60F" unicode="h&#x33;" 
d="M257 384h191v114q0 17 -1 28t-3 16q-2 4 -5.5 7.5t-8.5 6.5q-7 4 -15 6t-15 2h-16v12h192v-12h-16q-7 0 -14.5 -2t-14.5 -5q-5 -3 -8.5 -7t-5.5 -9t-3 -17.5t-1 -39.5v-292q0 -6 1 -15.5t3 -14.5q2 -4 5.5 -7.5t8.5 -6.5q7 -4 14.5 -6t14.5 -2h16v-12h-192v12h16
q13 0 23.5 4t16.5 12q4 5 6 17.5t2 32.5v146h-191v-146q0 -17 1 -28t3 -16q2 -4 5 -7.5t9 -6.5q7 -4 14 -6t15 -2h16v-12h-192v12h16q13 0 23.5 4t16.5 12q4 5 6 16t2 20v292q0 27 -1 40t-3 18q-2 4 -5 7.5t-8 6.5q-8 4 -16 6t-15 2h-16v12h192v-12h-16q-8 0 -15 -2t-14 -5
q-5 -3 -8.5 -7t-5.5 -9t-3 -16t-1 -27v-114v0zM647 485q10 22 22 38.5t27 28.5q14 12 32.5 18t40.5 6q27 0 47.5 -8.5t35.5 -25.5q11 -12 16.5 -25.5t5.5 -27.5q0 -24 -15.5 -48.5t-46.5 -49.5q21 -8 36.5 -19t26.5 -25q10 -15 15.5 -32t5.5 -37q0 -28 -9.5 -52t-27.5 -45
q-24 -26 -59.5 -39.5t-81.5 -13.5q-22 0 -37.5 2.5t-24.5 8.5q-8 5 -12 11t-4 12q0 5 2 9t6 7q4 4 8.5 5.5t10.5 1.5q4 0 8 -0.5t8 -1.5q3 -1 9.5 -4t16.5 -8t17 -8t11 -4q6 -2 12.5 -2.5t13.5 -0.5q17 0 31.5 6t27.5 19q12 12 18.5 27t6.5 32q0 13 -3 25t-9 24q-4 9 -9 16
t-10 11q-7 7 -16.5 12.5t-22.5 10.5q-12 6 -25 8.5t-26 2.5h-10v9q13 2 26 6.5t26 11.5q14 8 23.5 17t15.5 19q6 11 9 22.5t3 24.5q0 16 -5.5 29t-16.5 24q-10 10 -23.5 15t-29.5 5q-26 0 -47.5 -13.5t-38.5 -39.5l-11 5v0zM1024 768h-1024v-64h1024v64z" />
    <glyph glyph-name="uniE610" unicode="h&#x34;" 
d="M257 384h191v114q0 17 -1 28t-3 16q-2 4 -5.5 7.5t-8.5 6.5q-7 4 -15 6t-15 2h-16v12h192v-12h-16q-7 0 -14.5 -2t-14.5 -5q-5 -3 -8.5 -7t-5.5 -9t-3 -17.5t-1 -39.5v-292q0 -6 1 -15.5t3 -14.5q2 -4 5.5 -7.5t8.5 -6.5q7 -4 14.5 -6t14.5 -2h16v-12h-192v12h16
q13 0 23.5 4t16.5 12q4 5 6 17.5t2 32.5v146h-191v-146q0 -17 1 -28t3 -16q2 -4 5 -7.5t9 -6.5q7 -4 14 -6t15 -2h16v-12h-192v12h16q13 0 23.5 4t16.5 12q4 5 6 16t2 20v292q0 27 -1 40t-3 18q-2 4 -5 7.5t-8 6.5q-8 4 -16 6t-15 2h-16v12h192v-12h-16q-8 0 -15 -2t-14 -5
q-5 -3 -8.5 -7t-5.5 -9t-3 -16t-1 -27v-114v0zM938 290v-46h-59v-116h-53v116h-186v41l204 291h35v-286h59v0zM826 290v218l-154 -218h154zM1024 768h-1024v-64h1024v64z" />
    <glyph glyph-name="uniE611" unicode="h&#x35;" 
d="M257 384h191v114q0 17 -1 28t-3 16q-2 4 -5.5 7.5t-8.5 6.5q-7 4 -15 6t-15 2h-16v12h192v-12h-16q-7 0 -14.5 -2t-14.5 -5q-5 -3 -8.5 -7t-5.5 -9t-3 -17.5t-1 -39.5v-292q0 -6 1 -15.5t3 -14.5q2 -4 5.5 -7.5t8.5 -6.5q7 -4 14.5 -6t14.5 -2h16v-12h-192v12h16
q13 0 23.5 4t16.5 12q4 5 6 17.5t2 32.5v146h-191v-146q0 -17 1 -28t3 -16q2 -4 5 -7.5t9 -6.5q7 -4 14 -6t15 -2h16v-12h-192v12h16q13 0 23.5 4t16.5 12q4 5 6 16t2 20v292q0 27 -1 40t-3 18q-2 4 -5 7.5t-8 6.5q-8 4 -16 6t-15 2h-16v12h192v-12h-16q-8 0 -15 -2t-14 -5
q-5 -3 -8.5 -7t-5.5 -9t-3 -16t-1 -27v-114v0zM896 576l-25 -55h-132l-29 -59q43 -7 77 -23t59 -41q21 -22 32 -48t11 -56q0 -17 -3.5 -33.5t-10.5 -30.5q-7 -15 -16 -27.5t-20 -23.5q-10 -10 -22 -18.5t-25 -14.5q-19 -9 -38 -13.5t-39 -4.5q-19 0 -33.5 3.5t-23.5 9.5
q-9 7 -13.5 14.5t-4.5 15.5q0 5 2 9t5 7q4 4 9 5.5t10 1.5q4 0 8 -0.5t7 -1.5q3 -2 8.5 -5t12.5 -9q13 -8 25 -12.5t25 -4.5q19 0 35.5 7.5t30.5 21.5q14 15 21.5 32.5t7.5 37.5t-6.5 38.5t-19.5 36.5q-13 17 -30.5 30.5t-39.5 22.5q-18 7 -42 11.5t-54 5.5l84 171h157v0z
M1024 768h-1024v-64h1024v64z" />
    <glyph glyph-name="uniE612" unicode="h&#x36;" 
d="M257 384h191v114q0 17 -1 28t-3 16q-2 4 -5.5 7.5t-8.5 6.5q-7 4 -15 6t-15 2h-16v12h192v-12h-16q-7 0 -14.5 -2t-14.5 -5q-5 -3 -8.5 -7t-5.5 -9t-3 -17.5t-1 -39.5v-292q0 -6 1 -15.5t3 -14.5q2 -4 5.5 -7.5t8.5 -6.5q7 -4 14.5 -6t14.5 -2h16v-12h-192v12h16
q13 0 23.5 4t16.5 12q4 5 6 17.5t2 32.5v146h-191v-146q0 -17 1 -28t3 -16q2 -4 5 -7.5t9 -6.5q7 -4 14 -6t15 -2h16v-12h-192v12h16q13 0 23.5 4t16.5 12q4 5 6 16t2 20v292q0 27 -1 40t-3 18q-2 4 -5 7.5t-8 6.5q-8 4 -16 6t-15 2h-16v12h192v-12h-16q-8 0 -15 -2t-14 -5
q-5 -3 -8.5 -7t-5.5 -9t-3 -16t-1 -27v-114v0zM888 576v-12q-20 -2 -36 -6t-28 -10q-13 -7 -25.5 -16.5t-24.5 -22.5t-22 -27t-18 -30t-14.5 -35t-12.5 -40q22 15 43.5 23t43.5 8q20 0 38 -9t34 -27q15 -17 22.5 -40t7.5 -51q0 -27 -7.5 -52t-23.5 -47q-18 -27 -42.5 -40.5
t-55.5 -13.5q-21 0 -38.5 7.5t-31.5 21.5q-29 29 -43 66t-14 82q0 29 5.5 56.5t16.5 53.5t26.5 49t35.5 44q20 20 39.5 33.5t38.5 20.5q18 7 35.5 10.5t33.5 3.5h17v0zM702 353q-3 -21 -4 -38.5t-1 -30.5q0 -15 2.5 -32t7.5 -34q6 -18 13.5 -32.5t18.5 -24.5
q7 -8 16.5 -11.5t20.5 -3.5q13 0 24.5 6.5t21.5 19.5q11 13 16 31.5t5 42.5q0 28 -5 51.5t-15 43.5q-11 19 -25 29t-33 10q-6 0 -12 -1t-12 -4q-7 -2 -16.5 -7.5t-22.5 -14.5zM1024 768h-1024v-64h1024v64z" />
    <glyph glyph-name="uniE613" unicode="list&#x2d;numbered" 
d="M384 832h576v-64h-576v64zM384 512h576v-64h-576v64zM384 192h576v-64h-576v64zM192 896v-256h-64v192q-2 -2 -17.5 -9.5t-26.5 -10.5v46q11 4 21 8t19 8q10 5 18.5 10.5t16.5 11.5h33zM133 366h123v-46h-192v19q0 10 2 18.5t5 16.5q4 7 8.5 14t10.5 13t12 11.5t13 10.5
q6 4 12.5 8.5t12.5 8.5t11.5 7.5t10.5 7.5t9 7.5t7 6.5q4 4 6 7.5t4 7.5q2 3 2.5 7t0.5 8q0 9 -2.5 15t-7.5 10t-13 6t-19 2q-19 0 -36.5 -6.5t-34.5 -19.5v49q19 11 40 16t45 5q11 0 20.5 -1t18.5 -4q8 -2 15.5 -6t13.5 -8q6 -5 10.5 -10.5t8.5 -12.5q3 -6 4.5 -13.5
t1.5 -15.5q0 -9 -1.5 -17t-4.5 -14q-3 -7 -7 -13t-9 -12t-11 -11t-13 -9q-6 -5 -13 -9.5t-14 -8.5q-5 -3 -9.5 -6t-9.5 -6l-8 -6t-8 -5l-6 -6t-5 -6q-2 -2 -3 -5t-1 -5zM64 12v48q15 -9 32.5 -13.5t38.5 -4.5q12 0 22 2t17 7q7 4 10.5 10.5t3.5 14.5t-4 14.5t-13 10.5
q-9 5 -21 7t-27 2h-28v42h25q30 0 44.5 8t14.5 24q0 15 -11 22.5t-34 7.5q-15 0 -30 -4t-29 -12v45q16 7 34.5 10t39.5 3q23 0 41 -4t31 -13q13 -8 19.5 -19.5t6.5 -24.5q0 -24 -15 -39.5t-45 -21.5v-1q16 -1 28.5 -6t22.5 -13q9 -8 13.5 -17.5t4.5 -21.5q0 -17 -7.5 -30.5
t-23.5 -23.5q-15 -10 -36.5 -15.5t-48.5 -5.5q-23 0 -42 3t-34 9v0z" />
    <glyph glyph-name="uniE614" unicode="list&#x2d;unordered" 
d="M384 832h576v-64h-576v64zM384 512h576v-64h-576v64zM384 192h576v-64h-576v64zM160 896q-40 0 -68 -28t-28 -68t28 -68t68 -28t68 28t28 68t-28 68t-68 28zM160 576q-40 0 -68 -28t-28 -68t28 -68t68 -28t68 28t28 68t-28 68t-68 28zM160 256q-40 0 -68 -28t-28 -68
t28 -68t68 -28t68 28t28 68t-28 68t-68 28z" />
    <glyph glyph-name="uniE615" unicode="indent&#x2d;increase" 
d="M960 832h-896v64h896v-64zM960 768h-512v-64h512v64zM960 640h-512v-64h512v64zM960 512h-512v-64h512v64zM960 384h-512v-64h512v64zM960 256h-512v-64h512v64zM960 128h-896v-64h896v64zM320 480l-256 224v-448z" />
    <glyph glyph-name="uniE616" unicode="indent&#x2d;decrease" 
d="M960 832h-896v64h896v-64zM960 768h-512v-64h512v64zM960 640h-512v-64h512v64zM960 512h-512v-64h512v64zM960 384h-512v-64h512v64zM960 256h-512v-64h512v64zM960 128h-896v-64h896v64zM320 256v448l-256 -224z" />
    <glyph glyph-name="uniE617" unicode="insert&#x2d;top" 
d="M384 320h384v-64h-384v64zM384 576h576v64h-576v-64zM768 448h-384v-64h384v64zM64 832v-448l192 224z" />
    <glyph glyph-name="uniE618" unicode="insert&#x2d;middle" 
d="M384 704h384v-64h-384v64zM384 448h576v64h-576v-64zM768 320h-384v-64h384v64zM64 704v-448l192 224z" />
    <glyph glyph-name="uniE619" unicode="insert&#x2d;bottom" 
d="M384 512h384v-64h-384v64zM384 256h576v64h-576v-64zM768 640h-384v-64h384v64zM64 512v-448l192 224z" />
    <glyph glyph-name="uniE61A" unicode="align&#x2d;top" 
d="M960 832h-896v64h896v-64zM832 768h-640v-64h640v64zM960 640h-896v-64h896v64z" />
    <glyph glyph-name="uniE61B" unicode="align&#x2d;middle" 
d="M960 576h-896v64h896v-64zM832 512h-640v-64h640v64zM960 384h-896v-64h896v64z" />
    <glyph glyph-name="uniE61C" unicode="align&#x2d;bottom" 
d="M960 256h-896v64h896v-64zM832 192h-640v-64h640v64zM960 64h-896v-64h896v64z" />
    <glyph glyph-name="uniE61D" unicode="align&#x2d;left" 
d="M896 768h-768v64h768v-64zM704 704h-576v-64h576v64zM896 576h-768v-64h768v64zM704 448h-576v-64h576v64zM896 320h-768v-64h768v64zM704 192h-576v-64h576v64z" />
    <glyph glyph-name="uniE61E" unicode="align&#x2d;center" 
d="M896 768h-768v64h768v-64zM768 640h-512v64h512v-64zM896 512h-768v64h768v-64zM768 384h-512v64h512v-64zM896 256h-768v64h768v-64zM768 128h-512v64h512v-64z" />
    <glyph glyph-name="uniE61F" unicode="align&#x2d;right" 
d="M128 576h768v-64h-768v64zM896 768v64h-768v-64h768zM320 640h576v64h-576v-64zM128 320v-64h768v64h-768zM320 384h576v64h-576v-64zM320 192v-64h576v64h-576z" />
    <glyph glyph-name="uniE620" unicode="align&#x2d;justify" 
d="M896 640h-768v64h768v-64zM896 832h-768v-64h768v64zM128 256h768v64h-768v-64zM128 384h768v64h-768v-64zM128 512h768v64h-768v-64zM128 128h768v64h-768v-64z" />
    <glyph glyph-name="uniE621" unicode="align&#x2d;remove" 
d="M158 576l64 -64h-94v64h30zM128 384h222l-64 64h-158v-64zM128 256h350l-64 64h-286v-64zM128 192v-64h478l-64 64h-414v0zM915 0l45 45l-83 83h19v64h-83l-64 64h147v64h-211l-64 64h275v64h-339l-64 64h403v64h-467l-64 64h531v64h-595l-64 64h659v64h-723l-64 64
l-45 -45z" />
    <glyph glyph-name="uniE622" unicode="text&#x2d;wrap" 
d="M960 768v-64h-768v64h768zM704 448v-448h-640v448h640zM640 384h-512v-320h512v320zM576 320h-384v-64h384v64zM576 128v64h-384v-64h384zM128 832h576v64h-640v-320h640v64h-576v192z" />
    <glyph glyph-name="uniE623" unicode="rule&#x2d;horizontal" 
d="M640 768h-576v64h576v-64zM832 704h-768v-64h768v64zM960 512h-896v-128h896v128zM640 256h-576v-64h576v64zM832 128h-768v-64h768v64z" />
    <glyph glyph-name="uniE624" unicode="table&#x2d;align&#x2d;top&#x2d;left" 
d="M64 0v960h896v-960h-896zM128 896v-832h768v832h-768zM192 768h384v64h-384v-64zM192 640h640v64h-640v-64zM192 512h384v64h-384v-64z" />
    <glyph glyph-name="uniE625" unicode="table&#x2d;align&#x2d;top&#x2d;center" 
d="M64 0v960h896v-960h-896zM128 896v-832h768v832h-768zM704 832h-384v-64h384v64zM832 704h-640v-64h640v64zM704 576h-384v-64h384v64z" />
    <glyph glyph-name="uniE626" unicode="table&#x2d;align&#x2d;top&#x2d;right" 
d="M64 0v960h896v-960h-896zM128 896v-832h768v832h-768zM832 832h-384v-64h384v64zM832 704h-640v-64h640v64zM832 576h-384v-64h384v64z" />
    <glyph glyph-name="uniE627" unicode="table&#x2d;align&#x2d;middle&#x2d;left" 
d="M64 0v960h896v-960h-896zM128 896v-832h768v832h-768zM192 576h384v64h-384v-64zM192 448h640v64h-640v-64zM192 320h384v64h-384v-64z" />
    <glyph glyph-name="uniE628" unicode="table&#x2d;align&#x2d;middle&#x2d;center" 
d="M64 0v960h896v-960h-896zM128 896v-832h768v832h-768zM704 640h-384v-64h384v64zM832 512h-640v-64h640v64zM704 384h-384v-64h384v64z" />
    <glyph glyph-name="uniE629" unicode="table&#x2d;align&#x2d;middle&#x2d;right" 
d="M64 0v960h896v-960h-896zM128 896v-832h768v832h-768zM832 640h-384v-64h384v64zM832 512h-640v-64h640v64zM832 384h-384v-64h384v64z" />
    <glyph glyph-name="uniE62A" unicode="table&#x2d;align&#x2d;bottom&#x2d;left" 
d="M64 0v960h896v-960h-896zM128 896v-832h768v832h-768zM192 384h384v64h-384v-64zM192 256h640v64h-640v-64zM192 128h384v64h-384v-64z" />
    <glyph glyph-name="uniE62B" unicode="table&#x2d;align&#x2d;bottom&#x2d;center" 
d="M64 0v960h896v-960h-896zM128 896v-832h768v832h-768zM704 448h-384v-64h384v64zM832 320h-640v-64h640v64zM704 192h-384v-64h384v64z" />
    <glyph glyph-name="uniE62C" unicode="table&#x2d;align&#x2d;bottom&#x2d;right" 
d="M64 0v960h896v-960h-896zM128 896v-832h768v832h-768zM832 448h-384v-64h384v64zM832 320h-640v-64h640v64zM832 192h-384v-64h384v64z" />
    <glyph glyph-name="uniE62D" unicode="table&#x2d;align&#x2d;remove" 
d="M64 960v-960h896v960h-896zM896 64h-768v832h768v-832zM263 512l60 -64h-67v64h7zM256 384h127l60 -64h-187v64zM502 256l60 -64h-306v64h246zM192 776l45 45l50 -53h481v-64h-421l60 -64h361v-64h-302l60 -64h242v-64h-182l59 -64h123v-64h-63l127 -136l-45 -45z" />
    <glyph glyph-name="uniE62E" unicode="borders&#x2d;all" 
d="M64 896v-832h832v832h-832zM128 832h320v-320h-320v320zM128 128v320h320v-320h-320zM832 128h-320v320h320v-320zM832 512h-320v320h320v-320z" />
    <glyph glyph-name="uniE62F" unicode="borders&#x2d;outside" 
d="M256 448h-64v64h64v-64zM384 512h-64v-64h64v64zM512 512h-64v-64h64v64zM512 640h-64v-64h64v64zM512 768h-64v-64h64v64zM512 256h-64v-64h64v64zM512 384h-64v-64h64v64zM640 512h-64v-64h64v64zM768 512h-64v-64h64v64zM896 896v-832h-832v832h832zM832 832h-704
v-704h704v704z" />
    <glyph glyph-name="uniE630" unicode="borders&#x2d;inside" 
d="M128 832h-64v64h64v-64zM128 768h-64v-64h64v64zM128 640h-64v-64h64v64zM128 384h-64v-64h64v64zM128 256h-64v-64h64v64zM896 768h-64v-64h64v64zM896 640h-64v-64h64v64zM896 384h-64v-64h64v64zM896 256h-64v-64h64v64zM256 896h-64v-64h64v64zM384 896h-64v-64h64
v64zM128 128h-64v-64h64v64zM256 128h-64v-64h64v64zM384 128h-64v-64h64v64zM640 128h-64v-64h64v64zM768 128h-64v-64h64v64zM896 128h-64v-64h64v64zM640 896h-64v-64h64v64zM768 896h-64v-64h64v64zM896 896h-64v-64h64v64zM896 512h-384v384h-64v-384h-384v-64h384
v-384h64v384h384v64z" />
    <glyph glyph-name="uniE631" unicode="borders&#x2d;inside&#x2d;horizontal" 
d="M896 512v-64h-832v64h832zM128 896h-64v-64h64v64zM128 704h-64v64h64v-64zM128 576h-64v64h64v-64zM128 320h-64v64h64v-64zM128 192h-64v64h64v-64zM896 704h-64v64h64v-64zM896 576h-64v64h64v-64zM896 320h-64v64h64v-64zM896 192h-64v64h64v-64zM256 832h-64v64h64
v-64zM384 832h-64v64h64v-64zM512 832h-64v64h64v-64zM512 704h-64v64h64v-64zM512 576h-64v64h64v-64zM512 320h-64v64h64v-64zM512 192h-64v64h64v-64zM512 64h-64v64h64v-64zM128 128h-64v-64h64v64zM256 64h-64v64h64v-64zM384 64h-64v64h64v-64zM640 128h-64v-64h64v64
zM768 64h-64v64h64v-64zM896 64h-64v64h64v-64zM640 896h-64v-64h64v64zM768 832h-64v64h64v-64zM896 832h-64v64h64v-64z" />
    <glyph glyph-name="uniE632" unicode="borders&#x2d;inside&#x2d;vertical" 
d="M512 64h-64v832h64v-832zM896 832v64h-64v-64h64zM704 832v64h64v-64h-64zM576 832v64h64v-64h-64zM320 832v64h64v-64h-64zM192 832v64h64v-64h-64zM704 64v64h64v-64h-64zM576 64v64h64v-64h-64zM320 64v64h64v-64h-64zM192 64v64h64v-64h-64zM832 704v64h64v-64h-64z
M832 576v64h64v-64h-64zM832 448v64h64v-64h-64zM704 448v64h64v-64h-64zM576 448v64h64v-64h-64zM320 448v64h64v-64h-64zM192 448v64h64v-64h-64zM64 448v64h64v-64h-64zM128 832v64h-64v-64h64zM64 704v64h64v-64h-64zM64 576v64h64v-64h-64zM128 320v64h-64v-64h64z
M64 192v64h64v-64h-64zM64 64v64h64v-64h-64zM896 320v64h-64v-64h64zM832 192v64h64v-64h-64zM832 64v64h64v-64h-64z" />
    <glyph glyph-name="uniE633" unicode="border&#x2d;top" 
d="M896 896v-64h-832v64h832zM128 768h-64v-64h64v64zM128 576h-64v64h64v-64zM128 448h-64v64h64v-64zM128 320h-64v64h64v-64zM128 192h-64v64h64v-64zM896 576h-64v64h64v-64zM896 448h-64v64h64v-64zM896 320h-64v64h64v-64zM896 192h-64v64h64v-64zM256 448h-64v64h64
v-64zM384 448h-64v64h64v-64zM512 704h-64v64h64v-64zM512 576h-64v64h64v-64zM512 448h-64v64h64v-64zM512 320h-64v64h64v-64zM512 192h-64v64h64v-64zM512 64h-64v64h64v-64zM128 128h-64v-64h64v64zM256 64h-64v64h64v-64zM384 64h-64v64h64v-64zM640 128h-64v-64h64v64
zM768 64h-64v64h64v-64zM896 64h-64v64h64v-64zM640 512h-64v-64h64v64zM768 448h-64v64h64v-64zM896 704h-64v64h64v-64z" />
    <glyph glyph-name="uniE634" unicode="border&#x2d;bottom" 
d="M64 64v64h832v-64h-832zM128 256h-64v-64h64v64zM128 320h-64v64h64v-64zM128 448h-64v64h64v-64zM128 576h-64v64h64v-64zM128 704h-64v64h64v-64zM896 320h-64v64h64v-64zM896 448h-64v64h64v-64zM896 576h-64v64h64v-64zM896 704h-64v64h64v-64zM256 448h-64v64h64
v-64zM384 448h-64v64h64v-64zM512 192h-64v64h64v-64zM512 320h-64v64h64v-64zM512 448h-64v64h64v-64zM512 576h-64v64h64v-64zM512 704h-64v64h64v-64zM512 832h-64v64h64v-64zM128 896h-64v-64h64v64zM256 832h-64v64h64v-64zM384 832h-64v64h64v-64zM640 896h-64v-64h64
v64zM768 832h-64v64h64v-64zM896 832h-64v64h64v-64zM640 512h-64v-64h64v64zM768 448h-64v64h64v-64zM896 192h-64v64h64v-64z" />
    <glyph glyph-name="uniE635" unicode="border&#x2d;left" 
d="M64 896h64v-832h-64v832zM256 832v64h-64v-64h64zM320 832v64h64v-64h-64zM448 832v64h64v-64h-64zM576 832v64h64v-64h-64zM704 832v64h64v-64h-64zM320 64v64h64v-64h-64zM448 64v64h64v-64h-64zM576 64v64h64v-64h-64zM704 64v64h64v-64h-64zM448 704v64h64v-64h-64z
M448 576v64h64v-64h-64zM192 448v64h64v-64h-64zM320 448v64h64v-64h-64zM448 448v64h64v-64h-64zM576 448v64h64v-64h-64zM704 448v64h64v-64h-64zM832 448v64h64v-64h-64zM896 832v64h-64v-64h64zM832 704v64h64v-64h-64zM832 576v64h64v-64h-64zM896 320v64h-64v-64h64z
M832 192v64h64v-64h-64zM832 64v64h64v-64h-64zM512 320v64h-64v-64h64zM448 192v64h64v-64h-64zM192 64v64h64v-64h-64z" />
    <glyph glyph-name="uniE636" unicode="border&#x2d;right" 
d="M896 64h-64v832h64v-832zM768 832v64h-64v-64h64zM576 832v64h64v-64h-64zM448 832v64h64v-64h-64zM320 832v64h64v-64h-64zM192 832v64h64v-64h-64zM576 64v64h64v-64h-64zM448 64v64h64v-64h-64zM320 64v64h64v-64h-64zM192 64v64h64v-64h-64zM448 704v64h64v-64h-64z
M448 576v64h64v-64h-64zM704 448v64h64v-64h-64zM576 448v64h64v-64h-64zM448 448v64h64v-64h-64zM320 448v64h64v-64h-64zM192 448v64h64v-64h-64zM64 448v64h64v-64h-64zM128 832v64h-64v-64h64zM64 704v64h64v-64h-64zM64 576v64h64v-64h-64zM128 320v64h-64v-64h64z
M64 192v64h64v-64h-64zM64 64v64h64v-64h-64zM512 320v64h-64v-64h64zM448 192v64h64v-64h-64zM704 64v64h64v-64h-64z" />
    <glyph glyph-name="uniE637" unicode="border&#x2d;no" 
d="M768 832v64h-64v-64h64zM576 832v64h64v-64h-64zM448 832v64h64v-64h-64zM320 832v64h64v-64h-64zM192 832v64h64v-64h-64zM576 64v64h64v-64h-64zM448 64v64h64v-64h-64zM320 64v64h64v-64h-64zM192 64v64h64v-64h-64zM448 704v64h64v-64h-64zM448 576v64h64v-64h-64z
M704 448v64h64v-64h-64zM576 448v64h64v-64h-64zM448 448v64h64v-64h-64zM320 448v64h64v-64h-64zM192 448v64h64v-64h-64zM64 448v64h64v-64h-64zM128 832v64h-64v-64h64zM64 704v64h64v-64h-64zM64 576v64h64v-64h-64zM128 320v64h-64v-64h64zM64 192v64h64v-64h-64z
M64 64v64h64v-64h-64zM832 448v64h64v-64h-64zM896 832v64h-64v-64h64zM832 704v64h64v-64h-64zM832 576v64h64v-64h-64zM896 320v64h-64v-64h64zM832 192v64h64v-64h-64zM832 64v64h64v-64h-64zM512 320v64h-64v-64h64zM448 192v64h64v-64h-64zM704 64v64h64v-64h-64z" />
    <glyph glyph-name="uniE638" unicode="borders&#x2d;show&#x2d;hide" 
d="M128 64h256v-64h-320v896h896v-256h-64v192h-768v-768zM896 64h-128v-64h192v192h-64v-128zM320 384v128h-128v-128h128zM448 384h128v128h-128v-128zM768 448v64h-64v-64h64zM576 768h-128v-128h128v128zM576 0l-256 256l90 90l166 -166l294 294l90 -90z" />
    <glyph glyph-name="uniE639" unicode="border" 
d="M832 896v64h-64v-64h-64v64h-64v-64h-64v64h-64v-64h-64v64h-64v-64h-64v64h-64v-64h-64v64h-64v-64h-64v-64h-64v-64h64v-64h-64v-64h64v-64h-64v-64h64v-64h-64v-64h64v-64h-64v-64h64v-64h-64v-64h64v-64h64v-64h64v64h64v-64h64v64h64v-64h64v64h64v-64h64v64h64v-64
h64v64h64v-64h64v64h64v64h64v64h-64v64h64v64h-64v64h64v64h-64v64h64v64h-64v64h64v64h-64v64h64v64h-64v64h-64zM832 128h-704v704h704v-704zM896 0v64h64v-64h-64zM960 896h-64v64h64v-64zM0 64h64v-64h-64v64zM64 960v-64h-64v64h64z" />
    <glyph glyph-name="uniE63A" unicode="form&#x2d;element" 
d="M832 896v64h-64v-64h-64v64h-64v-64h-64v64h-64v-64h-64v64h-64v-64h-64v64h-64v-64h-64v64h-64v-64h-64v-64h-64v-64h64v-64h-64v-64h64v-64h-64v-64h64v-64h-64v-64h64v-64h-64v-64h64v-64h-64v-64h64v-64h64v-64h64v64h64v-64h64v64h64v-64h64v64h64v-64h64v64h64v-64
h64v64h64v-64h64v64h64v64h64v64h-64v64h64v64h-64v64h64v64h-64v64h64v64h-64v64h64v64h-64v64h64v64h-64v64h-64zM832 128h-704v704h704v-704zM896 0v64h64v-64h-64zM960 896h-64v64h64v-64zM0 64h64v-64h-64v64zM64 960v-64h-64v64h64zM384 704h-192v-64h192v64zM768 704
h-320v-64h320v64zM768 576h-320v-64h320v64zM768 448h-320v-64h320v64zM768 320h-320v-64h320v64zM384 320h-192v-64h192v64zM384 448h-192v-64h192v64zM384 576h-192v-64h192v64z" />
    <glyph glyph-name="uniE63B" unicode="code&#x2d;snippet" 
d="M832 896v64h-64v-64h-64v64h-64v-64h-64v64h-64v-64h-64v64h-64v-64h-64v64h-64v-64h-64v64h-64v-64h-64v-64h-64v-64h64v-64h-64v-64h64v-64h-64v-64h64v-64h-64v-64h64v-64h-64v-64h64v-64h-64v-64h64v-64h64v-64h64v64h64v-64h64v64h64v-64h64v64h64v-64h64v64h64v-64
h64v64h64v-64h64v64h64v64h64v64h-64v64h64v64h-64v64h64v64h-64v64h64v64h-64v64h64v64h-64v64h64v64h-64v64h-64zM832 384v-256h-704v704h704v-448zM64 960v-64h-64v64h64zM0 64h64v-64h-64v64zM397 595l-114 -115l114 -115l-45 -45l-160 160l160 160l45 -45v0zM608 640
l160 -160l-160 -160l-45 45l115 115l-115 115zM960 896h-64v64h64v-64zM896 0v64h64v-64h-64z" />
    <glyph glyph-name="uniE63C" unicode="select&#x2d;all" 
d="M896 64h64v-64h-64v64zM896 960h64v-64h-64v64zM0 64h64v-64h-64v64zM0 960h64v-64h-64v64zM896 192h64v-64h-64v64zM896 320h64v-64h-64v64zM896 448h64v-64h-64v64zM896 576h64v-64h-64v64zM896 704h64v-64h-64v64zM896 832h64v-64h-64v64zM0 192h64v-64h-64v64zM0 320
h64v-64h-64v64zM0 448h64v-64h-64v64zM0 576h64v-64h-64v64zM0 704h64v-64h-64v64zM0 832h64v-64h-64v64zM256 64h64v-64h-64v64zM128 64h64v-64h-64v64zM384 64h64v-64h-64v64zM512 64h64v-64h-64v64zM640 64h64v-64h-64v64zM768 64h64v-64h-64v64zM128 960h64v-64h-64v64z
M256 960h64v-64h-64v64zM384 960h64v-64h-64v64zM512 960h64v-64h-64v64zM640 960h64v-64h-64v64zM768 960h64v-64h-64v64zM576 832l107 -107l-203 -203l-203 203l107 107h-256v-256l107 107l203 -203l-203 -203l-107 107v-256h256l-107 107l203 203l203 -203l-107 -107h256
v256l-107 -107l-203 203l203 203l107 -107v256h-256z" />
    <glyph glyph-name="uniE63D" unicode="button" 
d="M260 700l72 -188h-204q-26 0 -45 19t-19 45v256q0 26 19 45t45 19h768q26 0 45 -19t19 -45v-256q0 -26 -19 -45t-45 -19h-148zM960 362l-588 226l226 -588l45 226l226 -226l91 91l-226 226l226 45v0z" />
    <glyph glyph-name="uniE63E" unicode="select&#x2d;box" 
d="M768 256h-512v64h512v-64zM768 192h-512v-64h512v64zM768 448h-512v-64h512v64zM960 832v-256q0 -26 -19 -45t-45 -19v-448q0 -27 -18.5 -45.5t-45.5 -18.5h-640q-27 0 -45.5 18.5t-18.5 45.5v448q-26 0 -45 19t-19 45v256q0 26 19 45t45 19h768q26 0 45 -19t19 -45z
M704 768l64 -128l64 128h-128zM832 512h-640v-448h640v448z" />
    <glyph glyph-name="uniE63F" unicode="calendar&#x2d;date" 
d="M896 896h-128v64h-128v-64h-256v64h-128v-64h-128q-26 0 -45 -19t-19 -45v-768q0 -27 19 -45.5t45 -18.5h768q27 0 45.5 18.5t18.5 45.5v768q0 26 -18.5 45t-45.5 19zM896 64h-768v0v0v512h768v-512zM896 640h-768v192v0v0h128v-64h128v64h256v-64h128v64h128v0v0v-192z
M384 419l-27.5 -17.5t-72.5 -17.5v29.5v34.5q45 0 80.5 32l35.5 32h48v-384h-64v291zM768 128h-256v28q0 15 2.5 28t7.5 24q5 12 11 22.5t13 19.5q8 9 16 17t17 15q8 7 16.5 13.5t16.5 12.5q8 5 15.5 11t13.5 11q6 6 11.5 11t9.5 11q4 5 7.5 10.5t5.5 10.5q2 6 3 11.5
t1 12.5q0 12 -3.5 21t-10.5 15q-7 7 -17.5 10t-24.5 3q-24 0 -47.5 -10t-45.5 -29v73q25 16 52.5 24t58.5 8q15 0 27.5 -2t24.5 -6q11 -3 20.5 -8.5t17.5 -12.5t14 -15.5t10 -18.5t6.5 -21t2.5 -23q0 -13 -2 -25t-6 -22t-9.5 -19t-12.5 -17q-6 -9 -13.5 -16.5t-16.5 -14.5
t-18 -13.5t-18 -13.5q-6 -4 -12.5 -8.5t-12.5 -8.5q-5 -5 -10.5 -9t-9.5 -9q-5 -4 -8.5 -8.5t-6.5 -8.5q-2 -4 -3.5 -10t-1.5 -10h165v-64v0z" />
    <glyph glyph-name="uniE640" unicode="group&#x2d;box" 
d="M288 797q-16 11 -38 16.5t-50 5.5q-61 0 -93 -22.5t-34 -67.5h52q1 25 19 37.5t53 12.5q16 0 28.5 -2.5t20.5 -7.5q3 -2 6.5 -4.5t5.5 -5.5t3.5 -6t2.5 -7t2 -8.5t1 -10.5v-12.5v-14.5h-25q-89 0 -133.5 -26t-44.5 -77q0 -10 1.5 -18.5t5.5 -16.5t9 -14.5t12 -11.5
q7 -6 15 -10.5t17 -7.5t19 -4.5t21 -1.5q31 0 57 9t46 28v-36h53v196q0 33 -8 55t-24 33v0zM268 596q-4 -5 -8 -9l-9 -9q-5 -3 -10.5 -6.5t-10.5 -6.5q-6 -3 -12 -5t-13 -4q-6 -1 -12.5 -2t-12.5 -1q-15 0 -26 3t-19 9q-9 6 -13 14.5t-4 20.5q0 31 28.5 46t85.5 15h36v-65v0
zM632 729q-4 14 -10 25.5t-14 21.5q-7 10 -16.5 17.5t-20.5 12.5t-24 8t-27 3q-25 0 -45.5 -10.5t-37.5 -30.5v120h-53v-384h52v30q17 -15 37 -22.5t43 -7.5q14 0 26 3t23 8q12 5 21.5 13t18.5 18q8 10 14.5 22t11.5 27q4 14 6.5 30t2.5 34q0 17 -2 32.5t-6 29.5zM567 581
q-10 -14 -23.5 -21t-30.5 -7q-22 0 -41 9t-36 27v138q18 25 38 37.5t41 12.5q17 0 30 -7t23 -21q9 -14 13.5 -34.5t4.5 -47.5q0 -29 -4.5 -50t-14.5 -36zM900 740q3 -5 4.5 -10.5t1.5 -11.5h54q-1 11 -4.5 20.5t-8.5 18.5q-5 8 -11.5 15.5t-13.5 12.5q-8 6 -17 10.5t-19 7.5
q-11 3 -22 4.5t-23 1.5q-15 0 -29 -2.5t-27 -7.5q-12 -5 -23 -12t-20 -17q-9 -9 -16 -21t-12 -25q-5 -14 -7.5 -30t-2.5 -33q0 -18 2.5 -34t7.5 -30q4 -14 11 -25.5t17 -20.5q9 -10 19.5 -17t23.5 -12t27 -7.5t30 -2.5q12 0 23 1.5t21 4.5t19 7.5t17 10.5q8 5 14 12.5
t11 15.5q5 9 8.5 18.5t4.5 21.5h-54q0 -7 -1.5 -12.5t-4.5 -10.5t-6.5 -9t-7.5 -7t-9 -5.5t-11 -4.5t-12 -2.5t-12 -0.5q-10 0 -18.5 1.5t-15.5 5.5q-8 3 -15 8.5t-12 12.5q-6 6 -10 14.5t-7 19.5q-3 10 -4.5 21.5t-1.5 25.5q0 13 1.5 25t4.5 23q3 10 7.5 18.5t9.5 15.5
q6 7 12.5 12t14.5 8t16 5t18 2q6 0 12 -1l12 -2q6 -2 11 -4.5t9 -5.5q4 -4 7.5 -8t6.5 -9v0v0zM256 448h512v-64h-512v64zM256 320h512v-64h-512v64zM256 192h512v-64h-512v64zM768 128h-512v64h512v-64zM768 384h-512v64h512v-64zM768 256h-512v64h512v-64zM832 448h64
v-384q0 -27 -18.5 -45.5t-45.5 -18.5h-640q-27 0 -45.5 18.5t-18.5 45.5v384h64v-384h640v384z" />
    <glyph glyph-name="uniE641" unicode="textarea" 
d="M896 64h-64v384h64v-384zM388 292q3 -5 4.5 -10.5t1.5 -11.5h54q-1 11 -4.5 20.5t-8.5 18.5t-11.5 16t-13.5 12q-8 6 -17 10.5t-19 7.5q-11 3 -22 4.5t-23 1.5q-15 0 -29 -2.5t-27 -7.5q-12 -5 -23 -12t-20 -17q-9 -9 -16 -21t-12 -25q-5 -14 -7.5 -30t-2.5 -33
q0 -18 2.5 -34t7.5 -30q4 -14 11 -25.5t17 -20.5q9 -10 19.5 -17t23.5 -12t27 -7.5t30 -2.5q12 0 23 1.5t21 4.5t19 7.5t17 10.5q8 5 14 12.5t11 15.5q5 9 8.5 18.5t4.5 21.5h-54q0 -7 -1.5 -12.5t-4.5 -10.5q-2 -5 -6 -9t-8 -7t-9 -5.5t-11 -4.5t-12 -2.5t-12 -0.5
q-10 0 -18.5 1.5t-15.5 5.5q-8 3 -15 8.5t-12 12.5q-6 6 -10 14.5t-7 19.5q-3 10 -4.5 21.5t-1.5 25.5q0 13 1.5 25t4.5 23q3 10 7.5 18.5t9.5 15.5q6 7 12.5 12t14.5 8t16 5t18 2q6 0 12 -1l12 -2q6 -2 11 -4.5t9 -5.5q4 -4 7.5 -8t6.5 -9v0v0zM416 797q-16 11 -38 16.5
t-50 5.5q-61 0 -93 -22.5t-34 -67.5h52q1 25 19 37.5t53 12.5q16 0 28.5 -2.5t20.5 -7.5q3 -2 6.5 -4.5t5.5 -5.5t3.5 -6t2.5 -7t2 -8.5t1 -10.5v-12.5v-14.5h-25q-89 0 -133.5 -26t-44.5 -77q0 -10 1.5 -18.5t5.5 -16.5t9 -14.5t12 -11.5q7 -6 15 -10.5t17 -7.5t19 -4.5
t21 -1.5q31 0 57 9t46 28v-36h53v196q0 33 -8 55t-24 33v0zM396 596q-4 -5 -8 -9l-9 -9q-5 -3 -10.5 -6.5t-10.5 -6.5q-6 -3 -12 -5t-13 -4q-6 -1 -12.5 -2t-12.5 -1q-15 0 -26 3t-19 9q-9 6 -13 14.5t-4 20.5q0 31 28.5 46t85.5 15h36v-65v0zM760 729q-4 14 -10 25.5
t-14 21.5q-7 10 -16.5 17.5t-20.5 12.5t-24 8t-27 3q-25 0 -45.5 -10.5t-37.5 -30.5v120h-53v-384h52v30q17 -15 37 -22.5t43 -7.5q14 0 26 3t23 8q12 5 21.5 13t18.5 18q8 10 14.5 22t11.5 27q4 14 6.5 30t2.5 34q0 17 -2 32.5t-6 29.5zM695 581q-10 -14 -23.5 -21
t-30.5 -7q-22 0 -41 9t-36 27v138q18 25 38 37.5t41 12.5q17 0 30 -7t23 -21q9 -14 13.5 -34.5t4.5 -47.5q0 -29 -4.5 -50t-14.5 -36zM512 219q0 -18 2.5 -34t6.5 -30q5 -15 11.5 -27t14.5 -22q9 -10 18.5 -18t21.5 -13q11 -6 23 -8.5t26 -2.5q23 0 43 7.5t37 22.5v-30h52
v384h-52v-120q-18 20 -38.5 30.5t-45.5 10.5q-14 0 -27 -2.5t-24 -8.5q-11 -5 -20.5 -12.5t-16.5 -17.5q-8 -10 -14 -21.5t-10 -25.5t-6 -29.5t-2 -32.5zM566 219q0 27 4.5 47.5t13.5 34.5t22 21t31 7q21 0 41 -12.5t37 -37.5v-138q-16 -18 -35.5 -27t-40.5 -9
q-17 0 -30.5 7t-23.5 21t-14.5 35.5t-4.5 50.5v0z" />
    <glyph glyph-name="uniE642" unicode="textbox" 
d="M416 541q-16 11 -38 16.5t-50 5.5q-61 0 -93 -22.5t-34 -67.5h52q1 25 19 37.5t53 12.5q16 0 28.5 -2.5t20.5 -7.5q3 -2 6.5 -4.5t5.5 -5.5t3.5 -6t2.5 -7t2 -8.5t1 -10.5v-12.5v-14.5h-25q-89 0 -133.5 -26t-44.5 -77q0 -10 1.5 -18.5t5.5 -16.5t9 -14.5t12 -11.5
q7 -6 15 -10.5t17 -7.5t19 -4.5t21 -1.5q31 0 57 9t46 28v-36h53v196q0 33 -8 55t-24 33v0zM396 340q-4 -5 -8 -9l-9 -9q-5 -4 -10.5 -7t-10.5 -6q-6 -3 -12 -5t-13 -4q-6 -1 -12.5 -2t-12.5 -1q-15 0 -26 3t-19 9q-9 6 -13 14.5t-4 20.5q0 31 28.5 46t85.5 15h36v-65v0z
M736 520q-7 10 -16.5 17.5t-20.5 12.5t-24 8t-27 3q-25 0 -45.5 -10.5t-37.5 -30.5v120h-53v-384h52v30q17 -15 37 -22.5t43 -7.5q14 0 26 3t23 8q12 5 21.5 13t18.5 18q8 10 14.5 22t11.5 27q4 14 6.5 30t2.5 34q0 17 -2 32.5t-6 29.5t-10 25.5t-14 21.5v0zM695 325
q-10 -14 -23.5 -21t-30.5 -7q-22 0 -41 9t-36 27v138q18 25 38 37.5t41 12.5q17 0 30 -7t23 -21q9 -14 13.5 -34.5t4.5 -47.5q0 -29 -4.5 -50.5t-14.5 -35.5zM896 832v-768h-64v768h64z" />
    <glyph glyph-name="uniE643" unicode="textbox&#x2d;hidden" 
d="M0 640h64v-128h-64v128zM0 704h64v128h-64v-128zM0 128h64v128h-64v-128zM320 -64h128v64h-128v-64zM128 -64h128v64h-128v-64zM704 960h-128v-64h128v64zM512 960h-128v-64h128v64zM0 -64h64v128h-64v-128zM896 960h-128v-64h128v64zM320 960h-128v-64h128v64zM128 960
h-128v-64h128v64zM0 320h64v128h-64v-128zM960 64h64v128h-64v-128zM960 256h64v128h-64v-128zM960 448h64v128h-64v-128zM960 640h64v128h-64v-128zM960 960v-128h64v128h-64zM896 -64h128v64h-128v-64zM512 -64h128v64h-128v-64zM704 -64h128v64h-128v-64zM693 267
q-11 -6 -23 -8.5t-26 -2.5q-23 0 -43 7.5t-37 22.5v-30h-52v384h52v-120q18 20 38.5 30.5t45.5 10.5q14 0 27 -2.5t24 -8.5q11 -5 20.5 -12.5t16.5 -17.5q8 -9 14 -21t10 -26t6 -29.5t2 -32.5q0 -18 -2.5 -34t-6.5 -30q-5 -15 -11.5 -27t-14.5 -22q-9 -10 -18.5 -17.5
t-21.5 -13.5v0zM714 411q0 27 -4.5 47.5t-13.5 34.5t-22 21t-31 7q-21 0 -41 -12.5t-37 -37.5v-138q16 -18 35.5 -27t40.5 -9q17 0 30.5 7t23.5 21t14.5 35.5t4.5 50.5v0zM448 453v-196h-52v36q-20 -18 -46 -27.5t-58 -9.5q-11 0 -20.5 1.5t-19.5 4.5q-9 3 -17 7.5t-15 10.5
q-6 5 -11.5 12t-8.5 15q-4 7 -6 15.5t-2 18.5q0 51 44.5 77t133.5 26h26v15v12q-1 6 -1.5 10.5t-1.5 8.5t-2.5 7t-4.5 6q-2 3 -5 5.5t-7 4.5q-8 5 -20 7.5t-29 2.5q-35 0 -53 -12.5t-19 -37.5h-52q3 45 34.5 67.5t92.5 22.5q29 0 50.5 -5.5t37.5 -16.5t24 -33t8 -55v0z
M396 405h-36q-57 0 -85.5 -15t-28.5 -46q0 -11 4 -20t13 -15q8 -6 19 -9t26 -3q6 0 12.5 1t12.5 2q7 2 13 4t12 5q5 3 10.5 6.5t10.5 6.5q5 4 9 8.5t8 9.5v65v0zM896 832h-64v-768h64v768z" />
    <glyph glyph-name="uniE644" unicode="password" 
d="M960 832v-768h-64v768h64zM348 518l-22 22l-70 -69v105h-64v-105l-70 69l-22 -22l69 -70h-105v-64h105l-69 -70l22 -22l70 69v-105h64v105l70 -69l22 22l-69 70h105v64h-105l69 70v0zM796 518l-22 22l-70 -69v105h-64v-105l-70 69l-22 -22l69 -70h-105v-64h105l-69 -70
l22 -22l70 69v-105h64v105l70 -69l22 22l-69 70h105v64h-105z" />
    <glyph glyph-name="uniE645" unicode="paragraph&#x2d;add" 
d="M640 768h-128v-704h-64v704h-128v-704h-64v384q-79 0 -135.5 56t-56.5 136q0 79 56 135.5t136 56.5h384v-64zM832 256v0v128h-64v-128h-128v-64h128v-128h64v128h128v64h-128z" />
    <glyph glyph-name="uniE646" unicode="edit&#x2d;tools" 
d="M521 384l23 -63l113 113l-169 462h-208l-280 -768h154l56 154l37 102h274zM486 480h-204l102 281l102 -281v0zM448 133v-133h133l340 337l-136 136l-337 -340v0zM559 65l-46 46l272 271l45 -45zM1005 421l-45 -45l-136 136l45 45q19 19 45.5 19t45.5 -19l45 -45
q19 -19 19 -45.5t-19 -45.5v0z" />
    <glyph glyph-name="uniE647" unicode="template&#x2d;manager" 
d="M754 376q-9 -9 -12 -11.5l-3 -2.5h-1h-1l-0.5 1t-0.5 2q0 2 -0.5 8.5t-0.5 23.5v63q0 15 -1 24.5t-4 14.5q-3 8 -8.5 14t-13.5 9q-9 5 -20.5 7.5t-25.5 2.5q-18 0 -32.5 -4.5t-24.5 -12.5q-11 -8 -16.5 -18t-5.5 -20q0 -6 2 -11t5 -9q4 -4 9 -6t10 -2q6 0 11 2t8 6
q4 3 5.5 8t1.5 12v11q0 3 1.5 5.5t3.5 5.5q3 2 7 3t9 1q7 0 12 -1.5t8 -5.5q3 -3 5.5 -10.5t2.5 -22.5v-2q-24 -9 -40.5 -16t-27.5 -13t-19.5 -13.5t-13.5 -14.5q-3 -6 -5 -13t-2 -15q0 -12 4 -22.5t11 -17.5q8 -8 17.5 -12t21.5 -4q7 0 14 1.5t14 4.5q3 1 10 5.5t17 12.5
q1 -5 3 -8.5t4 -5.5q4 -5 10 -7.5t13 -2.5q12 0 25 8.5t26 25.5l2 2v33l-14 -13v0zM683 376q-13 -10 -21 -13.5t-12 -3.5h-1q-4 0 -7.5 2t-6.5 5q-4 4 -5.5 9t-1.5 10t1.5 9t3.5 8q4 4 9 8.5t13 8.5q3 2 10.5 5l17.5 7v-55v0zM488 352q-2 2 -6 9.5t-10 26.5l-81 252h-15
l-82 -250q-6 -19 -10.5 -28t-7.5 -12q0 -1 -3 -2.5t-11 -3.5l-6 -1v-23h86v24h-7q-10 1 -13.5 2.5t-3.5 2.5q-1 1 -2 2.5t-1 3.5t1 7.5t5 15.5l10 32h85l9 -28q4 -12 5 -18.5t1 -9.5q0 -2 -0.5 -3.5t-1.5 -2.5t-4 -2t-10 -2h-7v-24h104v24h-6q-6 1 -10.5 2.5t-7.5 5.5v0z
M345 452l29 89l29 -89h-58zM704 896h-512q-27 0 -45.5 -18.5t-18.5 -45.5v-768q0 -27 18.5 -45.5t45.5 -18.5h640q27 0 45.5 18.5t18.5 45.5v640zM832 64h-640v768h448v-192h192v-576zM384 128h-128v128h128v-128zM576 128h-128v128h128v-128zM768 128h-128v128h128v-128z
" />
    <glyph glyph-name="uniE648" unicode="change&#x2d;manually" 
d="M832 254l64 64v-318h-832v896h832v-128h-64v64h-704v-768h704v190zM448 261v-133h133l340 337l-136 136l-337 -340v0zM559 193l-46 46l272 271l45 -45l-271 -272v0zM1005 640l-45 45q-19 19 -45.5 19t-45.5 -19l-45 -45l136 -136l45 45q19 19 19 45.5t-19 45.5v0z
M384 128h-50v44h-1q-12 -22 -29 -33t-40 -11q-17 0 -30 5t-23 15q-9 9 -14 22t-5 29q0 35 18.5 55t56.5 26l67 10q0 26 -11.5 39.5t-34.5 13.5q-20 0 -38.5 -7.5t-35.5 -22.5v48q18 11 39 17t45 6q43 0 64.5 -23t21.5 -68v-165v0zM334 254l-48 -7q-11 -2 -19 -5t-14 -7
t-8.5 -11.5t-2.5 -18.5q0 -8 2.5 -14t7.5 -11t12 -7.5t16 -2.5q12 0 21.5 4.5t17.5 13.5q8 8 11.5 19.5t3.5 24.5v22v0z" />
    <glyph glyph-name="uniE649" unicode="track&#x2d;changes" 
d="M824 448l46 45q18 19 44.5 19t45.5 -19l45 -45q19 -19 19 -45.5t-19 -45.5l-45 -45l-136 136v0zM785 409l-283 -283l-54 -57v-133h133l57 54l283 283l-136 136v0zM559 1l-46 46l272 271l45 -45zM576 640h-256v-64h256v64zM704 512h-384v-64h384v64zM576 384h-256v-64h256
v64zM448 256h-128v-64h128v64zM824 448l46 45q18 19 44.5 19t45.5 -19l45 -45q19 -19 19 -45.5t-19 -45.5l-45 -45l-136 136v0zM785 409l-283 -283l-54 -57v-133h133l57 54l283 283l-136 136v0zM559 1l-46 46l272 271l45 -45zM192 128v704h448v-192h192v-64h64v128l-192 192
h-512q-27 0 -45.5 -18.5t-18.5 -45.5v-704q0 -27 18.5 -45.5t45.5 -18.5h192v64h-192zM0 -64h384v64h-384v-64z" />
    <glyph glyph-name="uniE64A" unicode="track&#x2d;changes&#x2d;enable" 
d="M1005 613l-45 -45l-136 136l46 45q18 19 44.5 19t45.5 -19l45 -45q19 -19 19 -45.5t-19 -45.5v0zM785 665l136 -136l-283 -283l-57 -54h-133v133l54 57l283 283v0zM830 529l-45 45l-272 -271l46 -46l271 272v0zM320 320h64v64h-64v-64zM320 448h192v64h-192v-64zM576 640
h-256v-64h256v64zM320 192h64v64h-64v-64zM832 64h-640v768h448v-192l160 160l-96 96h-512q-27 0 -45.5 -18.5t-18.5 -45.5v-768q0 -27 18.5 -45.5t45.5 -18.5h640q27 0 45.5 18.5t18.5 45.5v350l-64 -64v-286z" />
    </font>
</defs>
</svg>
